<?xml version="1.0" encoding="UTF-8" standalone="no"?>
<svg
   id="Layer_1"
   data-name="Layer 1"
   viewBox="0 0 122.88 83.500999"
   version="1.1"
   sodipodi:docname="14-tailwind-css.svg"
   width="122.88"
   height="83.500999"
   inkscape:version="1.2.2 (732a01da63, 2022-12-09, custom)"
   xmlns:inkscape="http://www.inkscape.org/namespaces/inkscape"
   xmlns:sodipodi="http://sodipodi.sourceforge.net/DTD/sodipodi-0.dtd"
   xmlns="http://www.w3.org/2000/svg"
   xmlns:svg="http://www.w3.org/2000/svg"
   xmlns:rdf="http://www.w3.org/1999/02/22-rdf-syntax-ns#"
   xmlns:cc="http://creativecommons.org/ns#"
   xmlns:dc="http://purl.org/dc/elements/1.1/">
  <sodipodi:namedview
     id="namedview1493"
     pagecolor="#ffffff"
     bordercolor="#666666"
     borderopacity="1.0"
     inkscape:showpageshadow="2"
     inkscape:pageopacity="0.0"
     inkscape:pagecheckerboard="0"
     inkscape:deskcolor="#d1d1d1"
     showgrid="false"
     inkscape:zoom="5.9999282"
     inkscape:cx="70.000838"
     inkscape:cy="41.7505"
     inkscape:window-width="1366"
     inkscape:window-height="704"
     inkscape:window-x="0"
     inkscape:window-y="27"
     inkscape:window-maximized="1"
     inkscape:current-layer="Layer_1" />
  <defs
     id="defs1486">
    <style
       id="style1484">.cls-1{fill:#06b6d4;fill-rule:evenodd;}</style>
  </defs>
  <title
     id="title1488">tailwind-css</title>
  <path
     class="cls-1"
     d="m 61.439996,5.1054994 q -24.57,0 -30.72,24.4300006 9.22,-12.21 21.5,-9.16 c 4.68,1.16 8,4.53 11.72,8.26 6,6.08 13,13.11 28.220005,13.11 q 24.569999,0 30.719999,-24.43 -9.21,12.22 -21.5,9.16 c -4.679999,-1.16 -7.999999,-4.53 -11.720004,-8.26 -6.02,-6.11 -12.99,-13.1100006 -28.22,-13.1100006 z m -30.72,36.6400006 q -24.57,0 -30.719999723291,24.43 Q 9.229996,53.9655 21.499996,57.0155 c 4.68,1.16 8,4.53 11.72,8.27 6,6.07 13,13.11 28.22,13.11 q 24.57,0 30.720005,-24.43 -9.210005,12.21 -21.500005,9.14 c -4.68,-1.16 -8,-4.53 -11.72,-8.26 -6,-6.08 -13,-13.12 -28.22,-13.12 z"
     id="path1490" />
  <metadata
     id="metadata1495">
    <rdf:RDF>
      <cc:Work
         rdf:about="">
        <dc:title>tailwind-css</dc:title>
      </cc:Work>
    </rdf:RDF>
  </metadata>
</svg>
