<?xml version="1.0" encoding="UTF-8" standalone="no"?>
<svg
   width="414"
   height="187"
   viewBox="0 0 414 187"
   version="1.1"
   id="svg730"
   sodipodi:docname="20-laravel-blade.svg"
   inkscape:version="1.2.2 (732a01da63, 2022-12-09, custom)"
   xmlns:inkscape="http://www.inkscape.org/namespaces/inkscape"
   xmlns:sodipodi="http://sodipodi.sourceforge.net/DTD/sodipodi-0.dtd"
   xmlns="http://www.w3.org/2000/svg"
   xmlns:svg="http://www.w3.org/2000/svg"
   xmlns:rdf="http://www.w3.org/1999/02/22-rdf-syntax-ns#"
   xmlns:cc="http://creativecommons.org/ns#"
   xmlns:dc="http://purl.org/dc/elements/1.1/">
  <defs
     id="defs734" />
  <sodipodi:namedview
     id="namedview732"
     pagecolor="#ffffff"
     bordercolor="#666666"
     borderopacity="1.0"
     inkscape:showpageshadow="2"
     inkscape:pageopacity="0.0"
     inkscape:pagecheckerboard="0"
     inkscape:deskcolor="#d1d1d1"
     showgrid="false"
     inkscape:zoom="2.6791444"
     inkscape:cx="207.15569"
     inkscape:cy="93.5"
     inkscape:window-width="1366"
     inkscape:window-height="704"
     inkscape:window-x="0"
     inkscape:window-y="27"
     inkscape:window-maximized="1"
     inkscape:current-layer="svg730" />
  <title
     id="title702">Logo Blade UI Kit</title>
  <style
     type="text/css"
     id="style704">.a{fill:#e32e27}.b{fill:#ef382c}.c{fill:#f26c65}.d{fill:#f7a9a7}.e{fill:#f26b65}.f{fill:#fbcbc8}.g{fill:#fdeaea}.h{fill:#010101}</style>
  <g
     id="g904"
     transform="translate(0,0.3)">
    <path
       class="a"
       d="m 0,124.7 36,-21 v 83 l -36,-20 z"
       id="path706" />
    <path
       class="b"
       d="m 0,41.7 36,21 v 41 l -36,21 z m 72,83 36,20 -72,42 v -42 z"
       id="path708" />
    <path
       class="c"
       d="m 108,103.7 v 41 l -36,-20 z"
       id="path710" />
    <path
       class="d"
       d="m 72,41.7 36,21 -36,20 z"
       id="path712" />
    <path
       class="e"
       d="m 108,20.7 v 42 l -36,-21 z"
       id="path714" />
    <path
       class="d"
       d="m 72,82.7 v 42 l 36,-21 z"
       id="path716" />
    <path
       class="f"
       d="m 36,103.7 36,21 v -42 z"
       id="path718" />
    <path
       class="b"
       d="m 72,-0.3 v 42 l 36,-21 z"
       id="path720" />
    <path
       class="a"
       d="m 36,20.7 -36,21 36,21 36,-21 v -42 z"
       id="path722" />
    <path
       class="g"
       d="m 36,103.7 36,21 -36,20 z"
       id="path724" />
  </g>
  <path
     class="h"
     d="m 206.4,99.85 c 2.5,3.3 3.7,7.4 3.7,12.2 0,6.7 -2.3,12 -7,15.7 -4.6,3.7 -11.1,5.6 -19.4,5.6 H 150 v -78.2 h 32.6 c 8,0 14.3,1.8 18.8,5.4 4.5,3.6 6.7,8.6 6.7,15.1 0,4.2 -1.1,7.8 -3.2,10.8 -2.2,3 -5.2,5.3 -9,6.7 4.5,1.2 8,3.4 10.5,6.7 z m -45.2,-10.7 h 19.7 c 10.9,0 16.3,-4.2 16.3,-12.6 0,-8.1 -5.4,-12.2 -16.3,-12.2 h -19.7 z m 33.9,32 c 2.6,-2.1 3.9,-5.3 3.9,-9.7 0,-4.5 -1.3,-7.8 -4,-9.9 -2.7,-2.2 -6.8,-3.2 -12.4,-3.2 h -21.5 v 26.1 h 21.5 c 5.7,-0.2 9.9,-1.2 12.5,-3.3 z m 24.5,12.3 v -80.9 h 10.9 v 80.9 z m 73.2,-55.4 v 55.4 h -10.9 v -9.5 c -1.6,3.3 -4,5.8 -7.2,7.6 -3.2,1.8 -6.9,2.6 -11.1,2.6 -4.9,0 -9.2,-1.2 -12.9,-3.5 -3.7,-2.3 -6.6,-5.7 -8.6,-9.9 -2,-4.3 -3.1,-9.3 -3.1,-15 0,-5.7 1,-10.8 3.1,-15.2 2.1,-4.4 5,-7.8 8.7,-10.2 3.7,-2.4 8,-3.6 12.7,-3.6 4.2,0 7.9,0.9 11.1,2.7 3.1,1.8 5.5,4.3 7.2,7.6 v -9 z m -15,42.1 c 2.7,-3.5 4.1,-8.4 4.1,-14.7 0,-6.4 -1.4,-11.3 -4.1,-14.7 -2.7,-3.4 -6.6,-5.2 -11.7,-5.2 -5,0 -8.8,1.8 -11.7,5.3 -2.8,3.6 -4.2,8.5 -4.2,14.8 0,6.2 1.4,11.1 4.2,14.5 2.8,3.4 6.7,5.2 11.8,5.2 5,0 8.9,-1.7 11.6,-5.2 z m 77.3,-67.6 v 80.9 h -10.9 v -9.5 c -1.6,3.3 -4,5.8 -7.2,7.6 -3.2,1.8 -6.9,2.6 -11.1,2.6 -4.7,0 -9,-1.2 -12.7,-3.6 -3.7,-2.4 -6.6,-5.8 -8.7,-10.2 -2.1,-4.4 -3.1,-9.4 -3.1,-15.1 0,-5.7 1,-10.7 3.1,-15.1 2,-4.3 4.9,-7.7 8.6,-10 3.7,-2.3 8,-3.5 12.9,-3.5 4.2,0 7.8,0.9 11,2.6 3.2,1.8 5.6,4.3 7.2,7.5 v -34.2 z m -15,67.6 c 2.7,-3.5 4.1,-8.4 4.1,-14.7 0,-6.3 -1.4,-11.2 -4.1,-14.7 -2.7,-3.5 -6.6,-5.2 -11.5,-5.2 -5,0 -9,1.7 -11.8,5.2 -2.8,3.4 -4.2,8.3 -4.2,14.5 0,6.3 1.4,11.2 4.2,14.8 2.8,3.6 6.7,5.3 11.7,5.3 4.9,0 8.8,-1.7 11.6,-5.2 z m 73.9,-13.9 h -39.4 c 0.4,13 6.2,19.5 17.6,19.5 6.3,0 12.1,-2.1 17.4,-6.3 l 3.4,7.9 c -2.5,2.2 -5.6,3.9 -9.5,5.2 -3.9,1.3 -7.7,1.9 -11.5,1.9 -8.8,0 -15.8,-2.5 -20.8,-7.6 -5,-5.1 -7.6,-12.1 -7.6,-20.9 0,-5.6 1.1,-10.7 3.3,-15.1 2.2,-4.4 5.3,-7.8 9.4,-10.2 4,-2.4 8.6,-3.6 13.7,-3.6 7.4,0 13.3,2.4 17.6,7.3 4.3,4.8 6.4,11.5 6.4,20.1 z m -33.9,-17.2 c -2.6,2.5 -4.3,6 -5,10.7 h 29.2 c -0.4,-4.7 -1.9,-8.3 -4.3,-10.7 -2.4,-2.5 -5.7,-3.7 -9.7,-3.7 -4.2,-0.1 -7.6,1.2 -10.2,3.7 z"
     id="path726" />
  <metadata
     id="metadata906">
    <rdf:RDF>
      <cc:Work
         rdf:about="">
        <dc:title>Logo Blade UI Kit</dc:title>
      </cc:Work>
    </rdf:RDF>
  </metadata>
</svg>
