<?xml version="1.0" encoding="UTF-8" standalone="no"?>
<!-- Generator: Adobe Illustrator 21.0.0, SVG Export Plug-In . SVG Version: 6.00 Build 0)  -->

<svg
   version="1.1"
   x="0px"
   y="0px"
   viewBox="0 0 168.89101 45.205002"
   enable-background="new 0 0 240 90"
   xml:space="preserve"
   id="svg1005"
   sodipodi:docname="24-postgresql.svg"
   width="168.89101"
   height="45.205002"
   inkscape:version="1.2.2 (732a01da63, 2022-12-09, custom)"
   xmlns:inkscape="http://www.inkscape.org/namespaces/inkscape"
   xmlns:sodipodi="http://sodipodi.sourceforge.net/DTD/sodipodi-0.dtd"
   xmlns="http://www.w3.org/2000/svg"
   xmlns:svg="http://www.w3.org/2000/svg"><defs
   id="defs1009">
	
</defs><sodipodi:namedview
   id="namedview1007"
   pagecolor="#ffffff"
   bordercolor="#666666"
   borderopacity="1.0"
   inkscape:showpageshadow="2"
   inkscape:pageopacity="0.0"
   inkscape:pagecheckerboard="0"
   inkscape:deskcolor="#d1d1d1"
   showgrid="false"
   inkscape:zoom="5.05"
   inkscape:cx="120"
   inkscape:cy="45.049505"
   inkscape:window-width="1366"
   inkscape:window-height="704"
   inkscape:window-x="0"
   inkscape:window-y="27"
   inkscape:window-maximized="1"
   inkscape:current-layer="g1002" />
<g
   id="Layer_2"
   display="none">
	
		<rect
   x="-10"
   display="inline"
   fill="none"
   stroke="#e8e7e7"
   stroke-width="1.1277"
   stroke-miterlimit="10"
   width="260"
   height="90"
   id="rect949"
   y="0" />
</g>
<g
   id="g1002"
   transform="translate(-26.536001,-22.383451)">
		
		
		
		<path
   fill="#ffffff"
   d="m 123.3,36.1 c 0,1.1 0,2.2 0,3.3 -0.7,0 -1.3,0 -2,0 0,0.3 0,0.7 0,1 0.7,0 1.4,0 2,0 0,2.3 0,4.7 0,7 0,0.7 0.2,1.4 0.8,1.8 1.1,0.5 2.3,0.4 3.5,0.3 0,-0.3 0,-0.7 0,-1 -0.8,0.1 -1.6,0.2 -2.3,-0.2 -0.5,-0.3 -0.4,-0.9 -0.5,-1.4 0,-2.2 0,-4.3 0,-6.5 0.9,0 1.8,0 2.7,0 0,-0.4 0,-0.7 -0.1,-1.1 -0.9,0 -1.8,0 -2.7,0 0,-1.1 0,-2.2 0,-3.3 -0.3,0.1 -0.9,0.1 -1.4,0.1 z"
   id="path958" />
		<path
   fill="#ffffff"
   d="m 110.6,40 c -1.4,0.9 -1.4,3.5 0.3,4.2 2.3,0.8 4.9,0.6 7.3,1.3 1.2,0.4 1.3,2.2 0.2,2.8 -1.6,0.8 -3.5,0.7 -5.2,0.4 -1.2,-0.2 -2.2,-1 -2.3,-2.3 -0.6,0 -1.2,0 -1.7,0 0.2,0.9 0.4,1.9 1.2,2.5 1.3,0.9 3,0.9 4.5,1 1.6,0 3.3,-0.1 4.7,-0.9 1.2,-0.7 1.6,-2.3 0.9,-3.4 -0.5,-0.8 -1.4,-1.1 -2.3,-1.3 -1.9,-0.4 -3.9,-0.4 -5.8,-0.8 -0.7,-0.2 -1.3,-0.7 -1.3,-1.4 0,-1 1.1,-1.5 2,-1.7 1.4,-0.2 3,-0.3 4.4,0.3 0.8,0.3 1,1.1 1.2,1.9 0.6,0 1.1,0 1.7,0 -0.1,-0.9 -0.4,-1.9 -1.2,-2.4 -1.5,-1 -3.3,-1 -5,-0.9 -1.2,-0.1 -2.5,0 -3.6,0.7 z"
   id="path960" />
		<path
   fill="#ffffff"
   d="m 146.1,39.5 c -0.7,0.3 -1.1,1 -1.5,1.7 0,-0.6 0,-1.2 0,-1.7 -0.5,0 -1,0 -1.6,0 -0.1,3.4 0,6.7 0,10.1 0.5,0 1,0 1.5,0 0,-1.7 0,-3.5 0,-5.2 0,-1.2 0.4,-2.6 1.4,-3.3 1.1,-0.8 2.5,-0.6 3.8,-0.6 0,-0.4 0,-0.9 0,-1.3 -1.2,-0.1 -2.4,-0.2 -3.6,0.3 z"
   id="path962" />
		
		
		
		
		
		
		
		
		
		
		
		
		
		
		
		
		
		
		<g
   id="g1087"><g
     id="g1047"
     transform="matrix(0.89349551,0,0,1,4.7546688,0)"><path
       fill="#326690"
       d="m 166,34.7 c -2.4,1.3 -2.3,5.5 0.3,6.5 2.8,1 5.8,1.1 8.6,1.8 0.7,0.2 1.4,0.5 1.7,1.2 0.7,1.4 0.1,3.5 -1.5,4 -2.3,0.7 -5,0.7 -7.2,-0.2 -1.5,-0.6 -2.2,-2.1 -2.3,-3.5 -0.6,0 -1.3,0 -1.9,0.1 0.1,1.4 0.4,2.9 1.5,3.8 1.8,1.4 4.1,1.6 6.3,1.7 2,0 4.2,-0.2 5.9,-1.3 2,-1.4 2.2,-5.1 -0.2,-6.3 -2.2,-1.1 -4.7,-1.2 -7,-1.7 -1.1,-0.3 -2.4,-0.4 -3.4,-1.1 -1.3,-1.2 -0.7,-3.7 1,-4.1 2.2,-0.6 4.6,-0.7 6.7,0.1 1.3,0.4 1.8,1.8 2,2.9 0.6,0 1.2,0 1.9,0 0,-1.2 -0.4,-2.5 -1.4,-3.3 -1.6,-1.3 -3.8,-1.4 -5.7,-1.4 -1.7,-0.1 -3.6,-0.1 -5.3,0.8 z"
       id="path952" /><path
       d="m 94.7,35.2 c -1,-0.9 -2.5,-1.2 -3.8,-1.2 -2.9,0 -5.8,0.1 -8.7,0.1 0,5.1 0,10.3 0,15.4 0.5,0 1,0 1.5,0 0,-2.2 -0.1,-4.4 0,-6.5 2.5,0 4.9,0 7.4,0 1.8,-0.1 3.9,-0.9 4.6,-2.7 0.6,-1.7 0.4,-3.9 -1,-5.1 z M 93.9,40 c -0.5,1.3 -2,1.7 -3.3,1.8 -2.3,0.1 -4.6,0 -6.8,0 0,-2.1 0,-4.3 0,-6.4 2.2,0 4.4,0 6.6,0 1.1,0 2.4,0.2 3.1,1.1 0.7,0.9 0.8,2.3 0.4,3.5 z"
       id="path954" /><path
       fill="#326690"
       d="m 200.1,34.1 c 0,5.1 0,10.2 0,15.4 4.4,0 8.9,0 13.3,0 0,-0.4 0,-0.8 0,-1.3 -3.8,-0.1 -7.6,0 -11.5,-0.1 0,-4.7 0,-9.4 0,-14.1 -0.6,0.1 -1.2,0.1 -1.8,0.1 z"
       id="path956" /><path
       fill="#326690"
       d="m 183.7,34.9 c 2.2,-1.1 4.7,-1.3 7.1,-1.1 2.3,0.2 4.6,1 6.1,2.8 1.9,2 2.3,5.2 1.5,7.8 -0.4,1.5 -1.4,2.6 -2.5,3.6 0.9,0.6 1.8,1.2 2.7,1.9 -0.4,0.4 -0.8,0.7 -1.2,1.1 -0.9,-0.6 -1.8,-1.3 -2.7,-1.8 -0.7,0 -1.4,0.4 -2.2,0.6 -2,0.4 -4.2,0.4 -6.2,0 -2.2,-0.4 -4.4,-1.7 -5.6,-3.7 -1.2,-1.9 -1.3,-4.4 -0.8,-6.5 0.6,-2.1 2,-3.8 3.8,-4.7 z m 3,0.4 c -2.1,0.5 -4.1,2 -4.8,4.1 -0.7,2.3 -0.5,5 1.2,6.9 1.5,1.7 3.7,2.4 5.9,2.4 2.4,0.1 5,-0.6 6.6,-2.5 2.2,-2.8 1.9,-7.3 -1,-9.5 -2.2,-1.9 -5.2,-2 -7.9,-1.4 z"
       id="path964" /><path
       d="m 123.3,36.1 c 0.5,0 1,0 1.6,0 0,1.1 0,2.2 0,3.3 0.9,0 1.8,0 2.7,0 0,0.4 0,0.7 0.1,1.1 -0.9,0 -1.8,0 -2.7,0 0,2.2 0,4.3 0,6.5 0,0.5 0,1.1 0.5,1.4 0.7,0.3 1.5,0.2 2.3,0.2 0,0.3 0,0.7 0,1 -1.2,0.1 -2.4,0.2 -3.5,-0.3 -0.7,-0.3 -0.9,-1.1 -0.8,-1.8 0,-2.3 0,-4.7 0,-7 -0.7,0 -1.4,0 -2,0 0,-0.3 0,-0.7 0,-1 0.7,0 1.3,0 2,0 -0.2,-1.2 -0.2,-2.3 -0.2,-3.4 z"
       id="path966" /><path
       d="m 106.1,40 c -1.8,-1 -4,-1.1 -6,-0.8 -1.7,0.3 -3.3,1.2 -4,2.8 -0.7,1.6 -0.7,3.5 0.1,5.1 0.9,1.7 2.8,2.6 4.6,2.7 2.3,0.2 4.9,-0.1 6.6,-1.9 1.8,-2.3 1.4,-6.4 -1.3,-7.9 z m -0.3,7.5 c -0.9,0.9 -2.2,1.3 -3.4,1.3 -1.4,0.1 -2.9,-0.2 -3.9,-1.1 -1.3,-1.2 -1.5,-3.2 -1,-4.9 0.5,-1.5 1.9,-2.4 3.4,-2.6 1.4,-0.2 3,-0.1 4.3,0.7 1,0.6 1.5,1.7 1.6,2.8 0.2,1.4 0,2.8 -1,3.8 z"
       id="path968" /><path
       d="m 110.6,40 c 1,-0.7 2.3,-0.8 3.5,-0.9 1.7,-0.1 3.6,-0.1 5,0.9 0.8,0.5 1.1,1.5 1.2,2.4 -0.6,0 -1.1,0 -1.7,0 -0.1,-0.8 -0.4,-1.5 -1.2,-1.9 -1.4,-0.6 -2.9,-0.6 -4.4,-0.3 -0.9,0.1 -2,0.6 -2,1.7 -0.1,0.7 0.6,1.3 1.3,1.4 1.9,0.5 3.9,0.4 5.8,0.8 0.9,0.2 1.8,0.6 2.3,1.3 0.7,1.1 0.3,2.8 -0.9,3.4 -1.4,0.8 -3.1,0.9 -4.7,0.9 -1.5,-0.1 -3.2,-0.1 -4.5,-1 -0.8,-0.6 -1.1,-1.5 -1.2,-2.5 0.6,0 1.2,0 1.7,0 0,1.3 1.1,2.2 2.3,2.3 1.7,0.2 3.6,0.4 5.2,-0.4 1.1,-0.6 1,-2.4 -0.2,-2.8 -2.4,-0.7 -5,-0.5 -7.3,-1.3 -1.6,-0.5 -1.6,-3.1 -0.2,-4 z"
       id="path970" /><path
       d="m 132.4,39.3 c 1.6,-0.4 3.4,-0.4 5,0.1 0.9,0.3 1.6,1 2.3,1.6 0,-0.6 0.1,-1.1 0.1,-1.6 0.5,0 1,0 1.5,0 0.1,3.1 0,6.2 0.1,9.3 0.1,1.3 -0.2,2.7 -1.2,3.6 -1.3,1.2 -3.2,1.4 -4.9,1.4 -1.5,0 -3.1,-0.1 -4.5,-0.8 -0.9,-0.5 -1.4,-1.5 -1.6,-2.5 0.5,0 1,0 1.5,0 0.3,0.7 0.6,1.5 1.3,1.8 1.1,0.5 2.3,0.5 3.5,0.5 1.3,-0.1 2.8,-0.3 3.6,-1.4 0.8,-1.1 0.6,-2.5 0.6,-3.8 -1.6,1.7 -4.1,2 -6.3,1.7 -1.4,-0.2 -2.8,-0.7 -3.8,-1.8 -1.1,-1.4 -1.2,-3.3 -0.8,-4.9 0.4,-1.6 2,-2.8 3.6,-3.2 z m 1.3,1 c -1.1,0.2 -2.3,0.7 -2.9,1.7 -0.7,1.2 -0.7,2.8 -0.3,4 0.5,1.3 2,2 3.3,2.2 1.7,0.2 3.7,0 4.9,-1.3 1.4,-1.7 1.2,-4.6 -0.6,-5.9 -1.2,-0.9 -2.9,-0.9 -4.4,-0.7 z"
       id="path972" /><path
       d="m 146.1,39.5 c 1.2,-0.5 2.4,-0.4 3.6,-0.4 0,0.4 0,0.9 0,1.3 -1.3,0 -2.7,-0.2 -3.8,0.6 -1,0.7 -1.4,2.1 -1.4,3.3 0,1.7 0,3.5 0,5.2 -0.5,0 -1,0 -1.5,0 -0.1,-3.4 -0.1,-6.7 0,-10.1 0.5,0 1,0 1.6,0 0,0.6 0,1.2 0,1.7 0.4,-0.6 0.8,-1.3 1.5,-1.6 z"
       id="path974" /><path
       d="m 150.3,41.6 c 1,-1.7 3.1,-2.4 5,-2.5 2,-0.1 4.2,0.2 5.6,1.7 1.1,1 1.4,2.5 1.5,4 -3.8,0 -7.5,0 -11.3,0 0.1,1 0.4,2.1 1.2,2.8 1.5,1.3 3.7,1.5 5.5,1 1.2,-0.3 2.2,-1.2 2.6,-2.4 0.6,0 1.2,0 1.7,0 -0.5,1.7 -2,2.9 -3.7,3.3 -2.3,0.5 -5,0.4 -7,-1 -2,-1.4 -2.4,-4.7 -1.1,-6.9 z m 2.9,-0.8 c -1.1,0.6 -1.7,1.8 -1.9,3 3.2,0 6.4,0 9.6,0 -0.1,-0.7 -0.3,-1.5 -0.8,-2 -1.7,-2 -4.8,-2.2 -6.9,-1 z"
       id="path976" /></g><g
     id="g1061"><path
       fill="#ffffff"
       d="m 52.8,23.2 c -1.9,-0.3 -3.9,-0.4 -5.8,-0.1 -1.1,0.2 -2.2,0.7 -3.1,1.2 -3.1,-1 -6.6,-1.6 -9.8,-1 -2.3,0.4 -4.5,1.8 -5.7,3.9 -1.5,2.5 -1.8,5.5 -1.6,8.4 0.4,3.2 1.2,6.4 2.1,9.5 0.8,2.7 1.7,5.4 3.2,7.8 0.8,1.3 2,2.7 3.6,3.1 1.3,0.3 2.6,-0.1 3.6,-0.9 0.5,0.5 1.1,0.9 1.8,1.1 1.9,0.7 4,0.7 5.9,-0.1 0.1,2.6 0,5.3 1,7.7 0.4,1.2 1,2.3 2.1,3 1.2,0.8 2.6,0.9 4,0.7 1.2,-0.2 2.5,-0.6 3.5,-1.2 1.1,-0.7 2,-1.7 2.5,-2.9 1.2,-2.7 1.3,-5.6 1.4,-8.5 2.8,0.2 5.7,-0.5 7.8,-2.4 0.8,-0.7 1.5,-1.8 1.2,-2.9 -0.3,-1 -1.4,-1.7 -2.4,-1.6 -1.1,0.1 -2.1,0.4 -3.2,0.4 2.4,-4.2 4.3,-8.7 5.1,-13.4 0.3,-2 0.6,-4 0,-6 -0.3,-1.1 -1.1,-2 -1.9,-2.8 -1.8,-1.8 -4.3,-3 -6.8,-3.5 -2.9,-0.6 -5.8,-0.3 -8.5,0.5 z"
       id="path978" /><path
       fill="#ffffff"
       d="m 52.7,24.4 c 3,-0.9 6.2,-1.2 9.2,-0.3 2.4,0.7 4.6,2.1 6.1,4.1 0.6,0.8 0.8,1.9 0.8,2.9 0.1,1.8 -0.3,3.6 -0.7,5.3 -1.1,4.6 -3.1,8.9 -5.6,12.9 1.4,0.6 3,0.3 4.4,0.1 0.6,-0.1 1.4,-0.3 1.8,0.3 0.4,0.6 0,1.3 -0.4,1.7 -2.1,2.1 -5.3,2.6 -8.1,2.1 -0.3,2.5 -0.6,5 -1,7.6 -0.2,1.4 -0.7,2.9 -1.8,3.8 -1,0.9 -2.4,1.3 -3.7,1.5 -1.3,0.2 -2.9,0.1 -3.9,-0.9 -1.1,-1 -1.8,-2.5 -1.9,-3.9 -0.3,-2.5 -0.3,-5.1 -0.3,-7.6 -1.2,1 -2.8,1.6 -4.4,1.5 -1.1,-0.1 -2.4,-0.3 -3.2,-1.1 -0.5,-0.4 -0.4,-1.2 0.1,-1.6 0.9,-0.7 2.1,-0.6 3.1,-1 0.8,-0.2 1.2,-1 1.6,-1.5 -0.9,-0.1 -1.8,-0.3 -2.5,-0.7 -1.2,1.3 -2.4,2.7 -3.5,4 -0.7,0.8 -1.6,1.5 -2.7,1.3 C 34.9,54.7 34,53.8 33.3,52.9 32,51 31.1,48.8 30.4,46.6 29.3,43 28.4,39.4 27.9,35.7 c -0.3,-2.8 0,-5.8 1.6,-8.1 1.3,-1.9 3.5,-2.9 5.7,-3.1 3,-0.3 6,0.3 8.8,1.3 2.3,-1.5 5.3,-1.8 8,-1.2 0.3,-0.2 0.5,-0.1 0.7,-0.2 z m 2.2,0.8 c 0.6,0.4 1.2,0.7 1.8,1.1 2.4,1.6 4.3,3.9 5.4,6.5 0.3,0.8 0.7,1.5 0.6,2.4 0,1.7 -0.6,3.4 -0.4,5.1 0.2,1.8 0.6,3.7 0.1,5.5 -0.1,0.6 -0.5,1.2 -0.7,1.8 0,0.1 0.1,0.3 0.1,0.3 0.2,-0.3 0.4,-0.6 0.6,-0.9 1.9,-3.1 3.3,-6.5 4.3,-10 0.5,-1.9 0.9,-3.9 0.9,-5.9 0,-0.8 -0.1,-1.7 -0.6,-2.4 -1.1,-1.4 -2.6,-2.5 -4.3,-3.2 -2.5,-0.8 -5.2,-0.9 -7.8,-0.3 z m -7,0.2 c -1.9,0.2 -3.7,1.3 -4.8,2.8 -1.5,2.1 -2.2,4.7 -2.4,7.2 1.6,-0.7 3.3,-1.4 5.1,-1 1.1,0.3 2,1.3 2.2,2.4 0.5,2.3 0.8,4.6 0.3,6.9 -0.4,1.8 -1.5,3.4 -1.9,5.3 0.5,0 1,0.1 1.4,0.3 0.9,0.5 1.4,1.5 1.3,2.5 -0.1,2.5 -0.1,5 0.1,7.5 0.1,1 0.1,2.1 0.4,3.1 0.4,1.2 1.2,2.4 2.5,2.7 1.4,0.2 2.8,-0.2 4.1,-0.8 1.2,-0.6 1.8,-2 2,-3.3 0.4,-2.7 0.7,-5.4 1,-8.1 0.1,-1 -0.1,-2 0.5,-2.9 0.3,-0.6 0.9,-0.8 1.4,-1.1 -0.4,-0.6 -0.9,-1.2 -1.3,-1.8 -1.3,-2.8 -3.1,-5.4 -3.7,-8.4 -0.2,-1.3 -0.1,-2.8 1,-3.7 1.2,-1 2.8,-0.9 4.3,-0.9 -0.9,-2.5 -2.5,-4.7 -4.5,-6.3 -2.6,-1.9 -5.9,-2.8 -9,-2.4 z m -13.3,0.2 c -1.7,0.3 -3.4,1.3 -4.3,2.9 -1.2,2.1 -1.3,4.5 -1.1,6.8 0.4,3 1.1,6 2,9 0.8,2.5 1.6,5 3,7.2 0.5,0.8 1.1,1.6 2,1.9 0.8,0.2 1.4,-0.5 1.9,-1 1,-1.3 2.2,-2.5 3.3,-3.8 -1.6,-1.4 -2.4,-3.6 -2.2,-5.8 0.2,-1.6 0.3,-3.3 0.2,-5 -0.2,-2.3 0.2,-4.7 0.9,-7 0.5,-1.7 1.4,-3.2 2.6,-4.5 -2.7,-0.6 -5.6,-1.2 -8.3,-0.7 z m 23.3,10.3 c -0.8,0.6 -0.8,1.8 -0.6,2.7 0.6,2.9 2.3,5.3 3.5,7.9 1,-1.9 0.4,-4.1 0.2,-6.2 -0.2,-1.7 0.3,-3.3 0.4,-4.9 -1.1,0 -2.4,-0.2 -3.5,0.5 z M 40.6,37 c 0,1.4 0.1,2.8 0,4.1 -0.1,1.2 -0.4,2.4 -0.1,3.6 0.4,2.2 2.3,4 4.6,4 0.3,-1.1 0.7,-2.2 1.2,-3.2 1.4,-2.7 1.1,-5.8 0.4,-8.6 -0.2,-0.8 -0.9,-1.4 -1.7,-1.4 -1.6,0 -3.1,0.7 -4.4,1.5 z m 20.3,13.5 c -0.4,0.4 -0.4,1 -0.4,1.5 0.9,0.3 1.9,0.3 2.9,0.2 1.4,-0.2 2.9,-0.6 4,-1.7 -1.7,0.2 -3.6,0.6 -5.3,-0.2 -0.4,-0.2 -0.9,0 -1.2,0.2 z m -16.5,2 c -1,0.6 -2.2,0.5 -3.1,1 2,1 4.9,0.7 6.3,-1.2 0.7,-0.7 0,-2.1 -0.9,-2 -1,0.6 -1.4,1.7 -2.3,2.2 z"
       id="path980" /><path
       fill="#ffffff"
       d="m 58.3,36.3 c 0.6,-0.4 1.4,-0.4 2,-0.2 0,0.8 -1,1.4 -1.7,1 C 58.4,37 58,36.6 58.3,36.3 Z"
       id="path982" /><path
       fill="#ffffff"
       d="m 44.2,36.4 c 0.6,-0.2 1.3,-0.1 1.8,0.3 0.3,0.3 0,0.8 -0.3,0.9 -0.7,0.5 -1.8,0 -1.9,-0.8 0,-0.2 0.2,-0.4 0.4,-0.4 z"
       id="path984" /><path
       fill="#326690"
       d="m 54.9,25.2 c 2.5,-0.6 5.3,-0.5 7.7,0.4 1.7,0.6 3.2,1.8 4.3,3.2 0.6,0.7 0.6,1.6 0.6,2.4 0,2 -0.4,3.9 -0.9,5.9 -1,3.5 -2.4,6.9 -4.3,10 -0.2,0.3 -0.4,0.6 -0.6,0.9 0,-0.1 -0.1,-0.3 -0.1,-0.3 0.2,-0.6 0.6,-1.2 0.7,-1.8 0.5,-1.8 0.1,-3.7 -0.1,-5.5 C 62,38.7 62.6,37 62.6,35.3 62.7,34.5 62.3,33.7 62,32.9 60.8,30.3 59,28 56.6,26.4 56.2,25.9 55.5,25.6 54.9,25.2 Z"
       id="path986" /><path
       fill="#326690"
       d="m 47.9,25.4 c 3.1,-0.4 6.4,0.5 8.9,2.4 2,1.6 3.7,3.8 4.5,6.3 -1.4,0 -3.1,-0.1 -4.3,0.9 -1.1,0.9 -1.2,2.4 -1,3.7 0.6,3.1 2.4,5.7 3.7,8.4 0.3,0.7 0.8,1.2 1.3,1.8 -0.6,0.3 -1.1,0.5 -1.4,1.1 -0.5,0.9 -0.3,1.9 -0.5,2.9 -0.3,2.7 -0.6,5.4 -1,8.1 -0.2,1.3 -0.8,2.7 -2,3.3 -1.2,0.6 -2.7,1 -4.1,0.8 -1.3,-0.2 -2.2,-1.5 -2.5,-2.7 -0.3,-1 -0.3,-2.1 -0.4,-3.1 -0.1,-2.5 -0.1,-5 -0.1,-7.5 0.1,-1 -0.4,-2 -1.3,-2.5 -0.4,-0.2 -0.9,-0.3 -1.4,-0.3 0.4,-1.8 1.5,-3.4 1.9,-5.3 0.5,-2.3 0.2,-4.6 -0.3,-6.9 -0.2,-1.1 -1.1,-2.1 -2.2,-2.4 -1.8,-0.4 -3.5,0.2 -5.1,1 0.2,-2.5 0.9,-5.1 2.4,-7.2 1.2,-1.5 3,-2.5 4.9,-2.8 z"
       id="path988" /><path
       fill="#326690"
       d="m 34.6,25.6 c 2.8,-0.5 5.6,0 8.3,0.8 -1.2,1.3 -2.1,2.8 -2.6,4.5 -0.7,2.2 -1,4.6 -0.9,7 0.1,1.7 0.1,3.3 -0.2,5 -0.3,2.1 0.6,4.3 2.2,5.8 -1.1,1.3 -2.2,2.5 -3.3,3.8 -0.5,0.6 -1.1,1.2 -1.9,1 -0.9,-0.3 -1.5,-1.1 -2,-1.9 -1.4,-2.2 -2.2,-4.7 -3,-7.2 -0.9,-2.9 -1.6,-5.9 -2,-9 -0.2,-2.3 -0.1,-4.8 1.1,-6.8 0.9,-1.6 2.5,-2.6 4.3,-3 z"
       id="path990" /><path
       fill="#326690"
       d="m 57.9,35.9 c 1,-0.7 2.4,-0.6 3.5,-0.5 -0.1,1.6 -0.6,3.2 -0.4,4.9 0.2,2 0.7,4.2 -0.2,6.2 -1.3,-2.6 -3,-5 -3.5,-7.9 -0.1,-0.9 -0.1,-2 0.6,-2.7 z m 0.4,0.4 c -0.3,0.3 0,0.7 0.3,0.8 0.7,0.4 1.7,-0.2 1.7,-1 -0.6,-0.2 -1.4,-0.2 -2,0.2 z"
       id="path992" /><path
       fill="#326690"
       d="m 40.6,37 c 1.3,-0.8 2.8,-1.5 4.3,-1.4 0.8,0 1.5,0.6 1.7,1.4 0.7,2.8 0.9,5.9 -0.4,8.6 -0.5,1 -0.9,2.1 -1.2,3.2 -2.3,0 -4.2,-1.9 -4.6,-4 -0.3,-1.2 0.1,-2.4 0.1,-3.6 0.2,-1.5 0.1,-2.8 0.1,-4.2 z m 3.6,-0.6 c -0.2,0.1 -0.4,0.2 -0.4,0.4 0.1,0.8 1.2,1.3 1.9,0.8 C 46,37.4 46.3,37 46,36.7 45.5,36.3 44.8,36.2 44.2,36.4 Z"
       id="path994" /><path
       fill="#326690"
       d="m 60.9,50.5 c 0.3,-0.2 0.8,-0.5 1.2,-0.2 1.6,0.9 3.5,0.4 5.3,0.2 -1.1,1 -2.5,1.5 -4,1.7 -1,0.1 -2,0.2 -2.9,-0.2 0,-0.5 0,-1.1 0.4,-1.5 z"
       id="path996" /><path
       fill="#326690"
       d="m 44.4,52.5 c 0.9,-0.5 1.3,-1.6 2.2,-2.2 0.9,-0.1 1.7,1.3 0.9,2 -1.4,1.9 -4.3,2.3 -6.3,1.2 1,-0.4 2.2,-0.4 3.2,-1 z"
       id="path998" /><path
       d="m 52.8,23.2 c 2.7,-0.7 5.6,-1 8.4,-0.5 2.5,0.4 4.9,1.7 6.8,3.5 0.8,0.8 1.6,1.7 1.9,2.8 0.6,2 0.3,4 0,6 -0.9,4.7 -2.7,9.2 -5.1,13.4 1.1,0 2.1,-0.3 3.2,-0.4 1,-0.1 2.2,0.6 2.4,1.6 0.3,1.1 -0.4,2.2 -1.2,2.9 -2.2,1.9 -5.2,2.5 -7.9,2.4 -0.2,2.9 -0.2,5.8 -1.4,8.5 -0.6,1.2 -1.4,2.2 -2.5,2.9 -1.1,0.7 -2.3,1 -3.5,1.2 -1.3,0.2 -2.8,0.1 -4,-0.7 -1.1,-0.7 -1.7,-1.8 -2.1,-3 -0.9,-2.5 -0.8,-5.1 -1,-7.7 -1.9,0.8 -4,0.8 -5.9,0.1 -0.7,-0.2 -1.3,-0.6 -1.8,-1.1 -1,0.8 -2.3,1.2 -3.6,0.9 -1.6,-0.4 -2.7,-1.8 -3.6,-3.1 -1.5,-2.4 -2.4,-5.1 -3.2,-7.8 -0.9,-3.1 -1.7,-6.2 -2.1,-9.5 -0.2,-2.9 0,-5.9 1.6,-8.4 1.2,-2 3.4,-3.4 5.7,-3.9 3.3,-0.7 6.7,0 9.8,0.9 1,-0.5 2,-1 3.1,-1.2 2.1,-0.3 4.1,-0.1 6,0.2 z m -0.1,1.2 c -0.2,0.1 -0.5,-0.1 -0.7,-0.1 -2.7,-0.6 -5.7,-0.3 -8,1.2 -2.8,-1 -5.8,-1.6 -8.8,-1.3 -2.2,0.2 -4.5,1.3 -5.7,3.1 -1.6,2.4 -1.8,5.4 -1.6,8.1 0.5,3.7 1.4,7.3 2.5,10.8 0.8,2.2 1.6,4.4 2.9,6.3 0.7,0.9 1.6,1.9 2.8,2 1.1,0.1 2,-0.5 2.7,-1.3 1.2,-1.4 2.3,-2.7 3.5,-4 0.8,0.4 1.7,0.6 2.5,0.7 -0.5,0.6 -0.9,1.3 -1.6,1.5 -1,0.4 -2.2,0.3 -3.1,1 -0.5,0.4 -0.6,1.2 -0.1,1.6 0.8,0.8 2.1,1 3.2,1.1 1.6,0.1 3.2,-0.4 4.4,-1.5 0,2.5 0,5.1 0.3,7.6 0.1,1.5 0.8,3 1.9,3.9 1,0.9 2.6,1.1 3.9,0.9 1.3,-0.3 2.7,-0.7 3.7,-1.5 1.1,-1 1.6,-2.4 1.8,-3.8 0.4,-2.5 0.7,-5 1,-7.6 2.8,0.5 6,-0.1 8.1,-2.1 0.4,-0.4 0.9,-1.2 0.4,-1.7 -0.4,-0.5 -1.2,-0.4 -1.8,-0.3 -1.4,0.3 -3,0.6 -4.4,-0.1 2.5,-4 4.5,-8.3 5.6,-12.9 0.4,-1.7 0.7,-3.5 0.7,-5.3 -0.1,-1 -0.2,-2.1 -0.8,-2.9 -1.5,-2 -3.7,-3.4 -6.1,-4.1 -2.9,-0.4 -6.2,-0.2 -9.2,0.7 z"
       id="path1000" /></g></g>
	</g>
</svg>
