<?xml version="1.0" encoding="UTF-8" standalone="no"?>
<!-- Generator: Adobe Illustrator 19.2.1, SVG Export Plug-In . SVG Version: 6.00 Build 0)  -->

<svg
   version="1.1"
   id="layer"
   x="0px"
   y="0px"
   viewBox="0 0 600 150"
   xml:space="preserve"
   sodipodi:docname="25-mariadb.svg"
   width="600"
   height="150"
   inkscape:version="1.2.2 (732a01da63, 2022-12-09, custom)"
   xmlns:inkscape="http://www.inkscape.org/namespaces/inkscape"
   xmlns:sodipodi="http://sodipodi.sourceforge.net/DTD/sodipodi-0.dtd"
   xmlns="http://www.w3.org/2000/svg"
   xmlns:svg="http://www.w3.org/2000/svg"><defs
   id="defs1171" /><sodipodi:namedview
   id="namedview1169"
   pagecolor="#ffffff"
   bordercolor="#666666"
   borderopacity="1.0"
   inkscape:showpageshadow="2"
   inkscape:pageopacity="0.0"
   inkscape:pagecheckerboard="0"
   inkscape:deskcolor="#d1d1d1"
   showgrid="false"
   inkscape:zoom="2.02"
   inkscape:cx="300"
   inkscape:cy="75"
   inkscape:window-width="1366"
   inkscape:window-height="704"
   inkscape:window-x="0"
   inkscape:window-y="27"
   inkscape:window-maximized="1"
   inkscape:current-layer="layer" />
<style
   type="text/css"
   id="style1146">
	.st0{fill:#24525E;}
</style>
<g
   id="g1166"
   transform="translate(-20.9,-246.1)">
	<path
   class="st0"
   d="m 20.9,370.1 c 5.6,-7 13,-5.3 20.3,-4.5 5.3,0.7 10.4,2 15.8,2 3.4,0.1 5.6,-1.3 7.8,-3.7 4.2,-4.6 7.2,-10.1 11.6,-14.5 7.1,-7.1 15.3,-12.2 24.9,-15.5 16.1,-5.6 32.6,-10.1 48.5,-16.5 13.4,-5.5 23.6,-14.3 30.8,-26.9 4.7,-8.2 9.3,-16.5 15.1,-24.1 7.9,-10 18.1,-15.2 30.8,-15.1 6.7,0.1 12.5,-2.8 18.4,-5.2 0.5,0 1,0 1.5,0 2.5,0.9 3.3,2.9 3.3,5.4 0,6.8 -2.3,12.7 -7.5,17.1 -3.5,2.9 -7.2,5.6 -10.9,8.2 -5.1,3.6 -8.2,8.3 -9.7,14.4 -2.9,12.5 -5.2,25.2 -9.2,37.6 -3.5,11 -7.8,21.6 -16,30.3 -2.5,2.7 -5.4,4.9 -8.7,6.7 -1.9,0.9 -2.9,0.9 -2.6,-1.6 0.2,-1.9 0.2,-3.8 -0.2,-5.8 -1.1,2.4 -2.1,4.7 -3.2,7.1 -7.4,15 -18.3,25.6 -35,29.4 -0.2,0.1 -0.5,0.2 -0.7,0.2 -1.9,0.2 -4.5,1.2 -5.4,-0.2 -1.1,-1.8 1.7,-2.9 2.7,-4.3 8,-10.3 13.6,-21.5 14.7,-34.8 -1.2,-0.1 -1.1,0.9 -1.3,1.4 -0.3,0.5 -0.5,1.2 -0.7,1.8 -1.1,3 -2,6 -3.7,8.7 -1.7,2.8 -4.1,4.2 -7.4,4.3 -8.6,0.2 -17.2,-0.8 -25.6,-2 -7.5,-1 -15.1,-1.6 -22.7,-1 -8.6,0.6 -16.1,4.5 -23,9.2 -8,5.4 -16.5,9.8 -25.2,13.8 -3.9,1.8 -8.1,3 -12.2,4.1 -3.1,0 -6,0 -9.1,0 -1.3,-2 -0.7,-3.9 0.4,-5.6 1.6,-2.4 3.2,-4.8 4.9,-7.1 0.9,-1.2 1.8,-2.4 0,-3.5 -4,-2.4 -7.1,-6.1 -11.4,-8 -0.1,-0.7 -0.1,-1.3 -0.1,-1.8 z"
   id="path1148" />
	<path
   class="st0"
   d="m 620.9,339 c -2.5,9.1 -6.6,12.3 -16.1,13.2 -10.7,0.9 -21.5,0.2 -32.2,0.5 -2.5,0.1 -3.7,-0.9 -3.6,-3.6 0.1,-16.2 0.1,-32.4 0,-48.5 0,-2 0.5,-3.5 2.9,-3.5 11.5,0.2 23.1,-0.9 34.5,0.7 9.3,1.3 14,7.9 12.2,17 -0.8,4 -3.2,6.7 -7.8,8.5 6.4,2 9,6.3 10.1,11.8 0,1.4 0,2.7 0,3.9 z m -31.6,8.1 c 4.8,0 9.6,0.2 14.3,-0.6 5.7,-0.9 8.7,-3.8 8.9,-9.1 0.2,-6 -2.2,-9.3 -8.2,-10.4 -8.5,-1.5 -17.1,-0.4 -25.7,-0.6 -1.9,-0.1 -2.2,1.3 -2.2,2.8 0,4.9 0.1,9.9 0,14.7 -0.1,2.3 0.8,3.2 3.1,3.1 3.2,0 6.5,0.1 9.8,0.1 z m 1.4,-26.4 c 0,-0.1 0,-0.2 0,-0.2 3.9,0 7.8,0.2 11.8,-0.1 6.2,-0.5 9,-4.1 8.4,-10.2 -0.5,-4.7 -3.5,-7.2 -9.4,-7.4 -7.4,-0.2 -14.7,-0.1 -22,-0.1 -2,0 -3.1,0.6 -3.1,2.8 0.1,4.1 0.1,8.1 0,12.2 -0.1,2.4 1.2,3.1 3.3,3 3.7,0 7.4,0 11,0 z"
   id="path1150" />
	<path
   class="st0"
   d="m 258,315.7 c -2.3,9 -4.5,17.8 -6.7,26.6 -0.3,1.3 -0.6,2.4 -0.9,3.7 -1.7,7.1 -1.7,6.9 -9.1,6.7 -3.3,-0.1 -3.8,-1.3 -3.1,-4.2 3.6,-13.6 7.1,-27.1 10.5,-40.8 0.4,-1.5 0.8,-2.9 1.2,-4.4 1.6,-6.6 1.6,-6.4 8.3,-6.4 2.9,0 3.9,1.6 4.9,3.8 5,11.3 10.2,22.6 15.3,33.9 0.4,0.9 0.5,2 2,2.7 2.5,-5.5 4.9,-11 7.4,-16.5 3.1,-6.9 6.4,-13.8 9.3,-20.8 1.9,-4.5 5.6,-2.9 8.8,-3.1 3.1,-0.2 3.2,2.4 3.7,4.4 4.1,15.7 8.1,31.4 12.2,47 0.9,3.3 0,4.5 -3.3,4.2 -0.5,-0.1 -1,0 -1.5,0 -5.9,0 -5.9,0 -7.2,-5.6 -2.2,-9.1 -4.4,-18.2 -6.6,-27.3 -0.3,-1.2 -0.4,-2.5 -1.4,-3.6 -1.6,1.3 -2,3 -2.7,4.5 -4.3,9.4 -8.7,18.8 -12.7,28.4 -1.5,3.5 -3.9,3.6 -7,3.8 -3.1,0.1 -4.8,-1 -6,-3.9 -4.2,-9.9 -8.7,-19.6 -13.2,-29.4 -0.4,-1.2 -0.6,-2.7 -2.2,-3.7 z"
   id="path1152" />
	<path
   class="st0"
   d="m 361.2,316 c 1,-1.5 -0.2,-3.9 2.2,-4.2 2.8,-0.3 5.8,-0.9 8.5,0.5 1,0.5 0.8,1.8 0.8,2.7 0,11.4 0,22.7 0.1,34.2 0,2.4 -1,3.5 -3.4,3.5 -0.9,0 -1.8,0 -2.7,0 -3.1,0.2 -5.7,-0.1 -5.2,-4.4 -13.6,7.3 -25.6,6 -32.6,-3.3 -6.2,-8.1 -5.7,-20.5 0.7,-27.8 5.8,-6.4 20.3,-9.7 31.6,-1.2 z m -12,3.4 c -7.6,0 -12.8,5.1 -12.7,12.5 0,7.6 5.3,12.9 12.9,12.9 7.5,0 12.5,-4.9 12.5,-12.6 0,-7.9 -4.9,-12.8 -12.7,-12.8 z"
   id="path1154" />
	<path
   class="st0"
   d="m 476.7,315.9 c 1,-1.2 -0.2,-3.6 2,-3.9 2.9,-0.4 5.8,-0.8 8.5,0.3 1.1,0.5 0.9,1.7 0.9,2.7 0,11.5 0,23 0,34.5 0,2.3 -0.9,3.3 -3.1,3.3 -1,0 -2,0 -3.1,0 -2.9,0 -6,0.3 -4.9,-4.5 -12.3,7.4 -24.8,6.4 -32.1,-2.2 -6.6,-7.6 -6.9,-20.2 -0.7,-27.8 7.4,-8.8 19.4,-9.7 32.5,-2.4 z m -11.9,3.5 c -7.8,-0.1 -13,5.1 -12.9,12.7 0.1,7.3 5.4,12.6 12.7,12.8 7.7,0.1 13,-5 13.1,-12.6 0.1,-7.6 -5.2,-12.8 -12.9,-12.9 z"
   id="path1156" />
	<path
   class="st0"
   d="m 503.1,324.6 c 0,-7.8 0,-15.7 0,-23.5 0,-2.3 0.3,-4.1 3.2,-4 9.9,0.3 19.8,-0.7 29.6,0.6 15,2.1 24.3,13.2 23.8,28 -0.5,15.1 -10.4,25.2 -25.4,26.5 -9.1,0.8 -18.2,0.2 -27.3,0.5 -2.7,0.1 -3.8,-1 -3.8,-3.8 0,-8.1 -0.1,-16.2 -0.1,-24.3 z m 7.9,-0.1 c 0,6.2 0,12.4 0,18.6 0,1.6 0,3.4 2.1,3.4 7.7,0 15.4,1.1 23.1,-0.7 10.4,-2.5 15.5,-11 14.7,-23.7 -0.6,-10 -6.9,-16.9 -16.8,-18.6 -6.5,-1.1 -13.1,-0.4 -19.7,-0.7 -2.7,-0.2 -3.6,0.9 -3.5,3.5 0.2,6 0.1,12.2 0.1,18.2 z"
   id="path1158" />
	<path
   class="st0"
   d="m 396.5,317.7 c 4.8,-5.2 10,-7.9 16.9,-6.4 1.5,0.3 3.5,0.4 2.8,2.6 -0.7,2.4 -0.1,5.6 -3.7,6.3 -0.9,0.2 -1.7,-0.1 -2.7,-0.2 -7.7,-0.5 -13.3,4.2 -13.6,11.9 -0.2,5.4 -0.2,10.9 -0.1,16.3 0.1,3.1 -1,4.5 -4.3,4.5 -7.3,0.1 -7.3,0.2 -7.3,-7.2 0,-9.9 0.1,-19.8 -0.1,-29.6 -0.1,-3.4 1.2,-4.7 4.5,-4.3 0.4,0 0.8,0 1.2,0 5.7,0 5.7,0 6.4,6.1 z"
   id="path1160" />
	<path
   class="st0"
   d="m 421.1,328.8 c 0,-4.4 0.1,-8.9 -0.1,-13.3 -0.1,-3.1 1.2,-4.2 4.1,-3.9 0.4,0 0.8,0 1.2,0 6.4,-0.1 6.4,0 6.4,6.2 0,7.2 0,14.4 0,21.6 0,2 -0.1,3.6 2.7,4.6 2.4,0.9 2.1,4.3 2.1,6.7 0,2 -2,1.9 -3.5,2.1 -7.9,1.5 -12.2,-1.6 -12.8,-9.7 -0.4,-4.6 -0.1,-9.4 -0.1,-14.3 z"
   id="path1162" />
	<path
   class="st0"
   d="m 426.6,296.2 c 3.6,-0.1 6,2.2 6.1,5.6 0.1,3.3 -2.5,6 -6,6 -3.5,0 -5.9,-2.5 -5.9,-6 0.2,-3.5 2.3,-5.5 5.8,-5.6 z"
   id="path1164" />
</g>
</svg>
