<?xml version="1.0" encoding="UTF-8" standalone="no"?>
<svg
   height="247.326"
   viewBox="-11.9 -2 100.39 100.30052"
   width="250"
   version="1.1"
   id="svg2261"
   sodipodi:docname="30-vscode.svg"
   inkscape:version="1.2.2 (732a01da63, 2022-12-09, custom)"
   xmlns:inkscape="http://www.inkscape.org/namespaces/inkscape"
   xmlns:sodipodi="http://sodipodi.sourceforge.net/DTD/sodipodi-0.dtd"
   xmlns="http://www.w3.org/2000/svg"
   xmlns:svg="http://www.w3.org/2000/svg">
  <defs
     id="defs2265" />
  <sodipodi:namedview
     id="namedview2263"
     pagecolor="#ffffff"
     bordercolor="#666666"
     borderopacity="1.0"
     inkscape:showpageshadow="2"
     inkscape:pageopacity="0.0"
     inkscape:pagecheckerboard="0"
     inkscape:deskcolor="#d1d1d1"
     showgrid="false"
     inkscape:zoom="1.856"
     inkscape:cx="125"
     inkscape:cy="123.65302"
     inkscape:window-width="1366"
     inkscape:window-height="704"
     inkscape:window-x="0"
     inkscape:window-y="27"
     inkscape:window-maximized="1"
     inkscape:current-layer="svg2261" />
  <g
     id="g6653"
     transform="matrix(0.10288999,0,0,0.10288999,-12.677838,-3.4364496)">
    <path
       d="m 12.1,353.9 c 0,0 -24,-17.3 4.8,-40.4 l 67.1,-60 c 0,0 19.2,-20.2 39.5,-2.6 l 619.2,468.8 v 224.8 c 0,0 -0.3,35.3 -45.6,31.4 z"
       fill="#2489ca"
       id="path2253" />
    <path
       d="M 171.7,498.8 12.1,643.9 c 0,0 -16.4,12.2 0,34 l 74.1,67.4 c 0,0 17.6,18.9 43.6,-2.6 L 299,614.4 Z"
       fill="#1070b3"
       id="path2255" />
    <path
       d="M 451.9,500 744.6,276.5 742.7,52.9 c 0,0 -12.5,-48.8 -54.2,-23.4 L 299,384 Z"
       fill="#0877b9"
       id="path2257" />
    <path
       d="m 697.1,976.2 c 17,17.4 37.6,11.7 37.6,11.7 L 962.8,875.5 c 29.2,-19.9 25.1,-44.6 25.1,-44.6 V 159.7 C 987.9,130.2 957.7,120 957.7,120 L 760,24.7 c -43.2,-26.7 -71.5,4.8 -71.5,4.8 0,0 36.4,-26.2 54.2,23.4 v 887.5 c 0,6.1 -1.3,12.1 -3.9,17.5 -5.2,10.5 -16.5,20.3 -43.6,16.2 z"
       fill="#3c99d4"
       id="path2259" />
  </g>
</svg>
