<?xml version="1.0" encoding="UTF-8" standalone="no"?>
<svg
   width="256"
   height="183.67101"
   viewBox="0 0 256 183.67101"
   version="1.1"
   preserveAspectRatio="xMidYMid"
   id="svg1616"
   sodipodi:docname="35-pnpm.svg"
   inkscape:version="1.2.2 (732a01da63, 2022-12-09, custom)"
   xmlns:inkscape="http://www.inkscape.org/namespaces/inkscape"
   xmlns:sodipodi="http://sodipodi.sourceforge.net/DTD/sodipodi-0.dtd"
   xmlns="http://www.w3.org/2000/svg"
   xmlns:svg="http://www.w3.org/2000/svg"
   xmlns:rdf="http://www.w3.org/1999/02/22-rdf-syntax-ns#"
   xmlns:cc="http://creativecommons.org/ns#"
   xmlns:dc="http://purl.org/dc/elements/1.1/">
  <defs
     id="defs1620" />
  <sodipodi:namedview
     id="namedview1618"
     pagecolor="#ffffff"
     bordercolor="#666666"
     borderopacity="1.0"
     inkscape:showpageshadow="2"
     inkscape:pageopacity="0.0"
     inkscape:pagecheckerboard="0"
     inkscape:deskcolor="#d1d1d1"
     showgrid="false"
     inkscape:zoom="1.8125"
     inkscape:cx="128"
     inkscape:cy="91.862069"
     inkscape:window-width="1366"
     inkscape:window-height="704"
     inkscape:window-x="0"
     inkscape:window-y="27"
     inkscape:window-maximized="1"
     inkscape:current-layer="svg1616" />
  <title
     id="title1608">pnpm</title>
  <g
     id="g11417"
     transform="matrix(0.50000005,0,0,0.50000005,-2.9999876e-7,-2.405904e-5)">
    <g
       id="g1614">
      <path
         d="M 511.99995,126.27384 V 241.06823 H 397.20555 V 126.27384 Z M 511.99995,0 V 114.7944 H 397.20555 V 0 Z M 385.72611,0 V 114.7944 H 270.93172 V 0 Z M 259.45228,0 V 114.7944 H 144.65788 V 0 Z"
         fill="#f9ad00"
         id="path1610" />
      <path
         d="m 385.72611,252.54767 v 114.7944 H 270.93172 v -114.7944 z m 126.27384,0 v 114.7944 h -114.7944 v -114.7944 z m -252.54767,0 v 114.7944 H 144.65788 V 252.54767 Z M 385.72611,126.27384 V 241.06823 H 270.93172 V 126.27384 Z m -364.222823,33.497 c 3.857091,0 7.440972,0.49821 10.751643,1.49463 3.31067,0.99641 6.155275,2.52318 8.533815,4.58029 2.37854,2.05712 4.242801,4.64458 5.592784,7.7624 1.349982,3.11781 2.024973,6.83027 2.024973,11.13735 0,4.11423 -0.578564,7.71419 -1.735692,10.79986 -1.157127,3.08567 -2.796391,5.67314 -4.917792,7.7624 -2.1214,2.08925 -4.676723,3.64816 -7.665969,4.67672 -2.989247,1.02856 -6.315988,1.54284 -9.980226,1.54284 -2.764249,0 -5.335643,-0.41786 -7.714183,-1.25356 v 0 16.00693 l -0.155197,0.0448 c -0.648174,0.1803 -1.624999,0.3743 -2.930476,0.58199 -1.414267,0.225 -2.860677,0.3375 -4.3392287,0.3375 -1.4142669,0 -2.683893,-0.0964 -3.8088781,-0.28929 C 4.0338751,224.76284 3.0856734,224.37713 2.3142551,223.79857 1.5428367,223.22 0.96427294,222.43251 0.57856376,221.4361 0.19285459,220.43968 0,219.13791 0,217.53079 v 0 -46.2851 l 0.00492851,-0.34285 c 0.04599939,-1.57998 0.41399451,-2.87996 1.10398539,-3.89995 0.7392759,-1.09284 1.7517625,-2.08926 3.0374597,-2.98925 1.9928308,-1.28569 4.467798,-2.31425 7.4249014,-3.08567 2.957104,-0.77142 6.267774,-1.15713 9.932012,-1.15713 z m 112.627083,0 c 3.85709,0 7.44097,0.49821 10.75164,1.49463 3.31067,0.99641 6.15527,2.52318 8.53381,4.58029 2.37854,2.05712 4.24281,4.64458 5.59279,7.7624 1.34998,3.11781 2.02497,6.83027 2.02497,11.13735 0,4.11423 -0.57856,7.71419 -1.73569,10.79986 -1.15713,3.08567 -2.79639,5.67314 -4.91779,7.7624 -2.1214,2.08925 -4.67673,3.64816 -7.66597,4.67672 -2.98925,1.02856 -6.31599,1.54284 -9.98023,1.54284 -2.76425,0 -5.33564,-0.41786 -7.71418,-1.25356 v 0 16.00693 l -0.1552,0.0448 c -0.64817,0.1803 -1.625,0.3743 -2.93047,0.58199 -1.41427,0.225 -2.86068,0.3375 -4.33923,0.3375 -1.41427,0 -2.68389,-0.0964 -3.80888,-0.28929 -1.12498,-0.19285 -2.07319,-0.57856 -2.84461,-1.15712 -0.77141,-0.57857 -1.34998,-1.36606 -1.73569,-2.36247 -0.38571,-0.99642 -0.57856,-2.29819 -0.57856,-3.90531 v 0 -46.2851 l 0.005,-0.34285 c 0.046,-1.57998 0.41399,-2.87996 1.10398,-3.89995 0.73928,-1.09284 1.75177,-2.08926 3.03746,-2.98925 1.99283,-1.28569 4.4678,-2.31425 7.42491,-3.08567 2.9571,-0.77142 6.26777,-1.15713 9.93201,-1.15713 z m -54.288571,0 c 7.26419,0 12.856973,1.59105 16.77835,4.77315 3.921371,3.1821 5.882061,7.60169 5.882061,13.25876 v 0 30.18174 l -0.16841,0.0482 c -0.64575,0.17679 -1.6021,0.35357 -2.869046,0.53035 -1.382125,0.19286 -2.812463,0.28929 -4.291015,0.28929 -1.414267,0 -2.683893,-0.0964 -3.808878,-0.28929 -1.124985,-0.19285 -2.073187,-0.57856 -2.844605,-1.15712 -0.771418,-0.57857 -1.366053,-1.36606 -1.783905,-2.36247 -0.417851,-0.99642 -0.626777,-2.29819 -0.626777,-3.90531 v 0 -22.75684 l -0.0047,-0.31025 c -0.05609,-1.83506 -0.617028,-3.19412 -1.682803,-4.07719 -1.124985,-0.93213 -2.651751,-1.3982 -4.580297,-1.3982 -1.285697,0 -2.555323,0.16071 -3.808878,0.48214 -1.253554,0.32142 -2.330326,0.80356 -3.230314,1.44641 v 0 33.46027 l -0.168413,0.0482 c -0.64575,0.17679 -1.602099,0.35357 -2.869047,0.53035 -1.382124,0.19286 -2.812462,0.28929 -4.291014,0.28929 -1.414267,0 -2.683893,-0.0964 -3.808878,-0.28929 -1.124986,-0.19285 -2.073187,-0.57856 -2.844606,-1.15712 -0.771418,-0.57857 -1.366053,-1.36606 -1.783905,-2.36247 -0.417851,-0.99642 -0.626777,-2.29819 -0.626777,-3.90531 v 0 -28.92819 l 0.0049,-0.34285 c 0.046,-1.57998 0.413994,-2.87996 1.103985,-3.89995 0.739276,-1.09284 1.751762,-2.08926 3.03746,-2.98924 2.185685,-1.54284 4.933863,-2.7964 8.244533,-3.76067 3.310671,-0.96427 6.990979,-1.44641 11.040925,-1.44641 z m 141.265981,0 c 2.44283,0 4.83744,0.32143 7.18384,0.96428 2.3464,0.64284 4.43565,1.65533 6.26777,3.03746 1.83212,1.38212 3.2946,3.21424 4.38744,5.49635 1.09285,2.28211 1.63927,5.06243 1.63927,8.34096 v 0 30.3746 l -0.16841,0.0482 c -0.64575,0.17679 -1.6021,0.35357 -2.86905,0.53035 -1.38213,0.19286 -2.81246,0.28929 -4.29102,0.28929 -1.41426,0 -2.68389,-0.0964 -3.80887,-0.28929 -1.12499,-0.19285 -2.07319,-0.57856 -2.84461,-1.15712 -0.77142,-0.57857 -1.36605,-1.36606 -1.7839,-2.36247 -0.41786,-0.99642 -0.62678,-2.29819 -0.62678,-3.90531 v 0 -23.04612 l -0.005,-0.31651 c -0.0573,-1.76576 -0.60208,-3.05845 -1.63421,-3.87808 -1.09284,-0.86784 -2.57139,-1.30177 -4.43565,-1.30177 -0.89999,0 -1.86426,0.20893 -2.89282,0.62678 -1.02856,0.41785 -1.79998,0.85178 -2.31426,1.30177 0.0643,0.25714 0.0964,0.49821 0.0964,0.7232 v 0 32.73707 l -0.18381,0.0482 c -0.69977,0.17679 -1.68313,0.35357 -2.95007,0.53035 -1.38213,0.19286 -2.78033,0.28929 -4.19459,0.28929 -1.41427,0 -2.6839,-0.0964 -3.80888,-0.28929 -1.12499,-0.19285 -2.07319,-0.57856 -2.84461,-1.15712 -0.77141,-0.57857 -1.36605,-1.36606 -1.7839,-2.36247 -0.41785,-0.99642 -0.62678,-2.29819 -0.62678,-3.90531 v 0 -23.04612 l -0.005,-0.3001 c -0.0593,-1.77416 -0.65229,-3.07232 -1.77896,-3.89449 -1.18927,-0.86784 -2.61961,-1.30177 -4.29102,-1.30177 -1.15712,0 -2.15354,0.17679 -2.98924,0.53035 -0.83571,0.35357 -1.54284,0.69106 -2.1214,1.01249 v 0 33.84598 l -0.16842,0.0482 c -0.64575,0.17679 -1.6021,0.35357 -2.86904,0.53035 -1.38213,0.19286 -2.81247,0.28929 -4.29102,0.28929 -1.41427,0 -2.68389,-0.0964 -3.80888,-0.28929 -1.12498,-0.19285 -2.07318,-0.57856 -2.8446,-1.15712 -0.77142,-0.57857 -1.36605,-1.36606 -1.78391,-2.36247 -0.41785,-0.99642 -0.62677,-2.29819 -0.62677,-3.90531 v 0 -29.12104 l 0.005,-0.34243 c 0.046,-1.57597 0.414,-2.84396 1.10399,-3.80394 0.73928,-1.02856 1.75176,-1.99284 3.03746,-2.89282 2.18569,-1.54284 4.90172,-2.7964 8.14811,-3.76067 3.24638,-0.96427 6.63741,-1.44641 10.17308,-1.44641 2.63567,0 5.22314,0.36964 7.76239,1.10892 2.53925,0.73927 4.74101,1.84819 6.60527,3.32674 1.92855,-1.2857 4.09816,-2.3464 6.50884,-3.1821 2.41069,-0.83571 5.31958,-1.25356 8.72667,-1.25356 z M 22.08185,172.59567 c -1.221412,0 -2.314255,0.14464 -3.278528,0.43393 -0.964273,0.28928 -1.799976,0.62677 -2.507109,1.01248 v 0 21.21401 l 0.391066,0.1875 c 0.660705,0.30356 1.366053,0.56249 2.116043,0.77677 0.899988,0.25714 1.864261,0.38571 2.892819,0.38571 6.621341,0 9.932011,-3.95352 9.932011,-11.86056 0,-4.11423 -0.819632,-7.16776 -2.458896,-9.16059 -1.639264,-1.99283 -4.001732,-2.98925 -7.087406,-2.98925 z m 112.62708,0 c -1.22141,0 -2.31426,0.14464 -3.27853,0.43393 -0.96427,0.28928 -1.79997,0.62677 -2.50711,1.01248 v 0 21.21401 l 0.39107,0.1875 c 0.6607,0.30356 1.36605,0.56249 2.11604,0.77677 0.89999,0.25714 1.86426,0.38571 2.89282,0.38571 6.62134,0 9.93201,-3.95352 9.93201,-11.86056 0,-4.11423 -0.81963,-7.16776 -2.45889,-9.16059 -1.63927,-1.99283 -4.00174,-2.98925 -7.08741,-2.98925 z"
         fill="#4e4e4e"
         id="path1612" />
    </g>
  </g>
  <metadata
     id="metadata11419">
    <rdf:RDF>
      <cc:Work
         rdf:about="">
        <dc:title>pnpm</dc:title>
      </cc:Work>
    </rdf:RDF>
  </metadata>
</svg>
