<?xml version="1.0" encoding="UTF-8" standalone="no"?>
<svg
   width="256"
   height="104.063"
   viewBox="0 0 256 104.063"
   fill="none"
   version="1.1"
   id="svg14016"
   sodipodi:docname="39-netlify.svg"
   inkscape:version="1.2.2 (732a01da63, 2022-12-09, custom)"
   xmlns:inkscape="http://www.inkscape.org/namespaces/inkscape"
   xmlns:sodipodi="http://sodipodi.sourceforge.net/DTD/sodipodi-0.dtd"
   xmlns="http://www.w3.org/2000/svg"
   xmlns:svg="http://www.w3.org/2000/svg">
  <sodipodi:namedview
     id="namedview14018"
     pagecolor="#ffffff"
     bordercolor="#666666"
     borderopacity="1.0"
     inkscape:showpageshadow="2"
     inkscape:pageopacity="0.0"
     inkscape:pagecheckerboard="0"
     inkscape:deskcolor="#d1d1d1"
     showgrid="false"
     inkscape:zoom="1.8125"
     inkscape:cx="128"
     inkscape:cy="52.137931"
     inkscape:window-width="1366"
     inkscape:window-height="704"
     inkscape:window-x="0"
     inkscape:window-y="27"
     inkscape:window-maximized="1"
     inkscape:current-layer="svg14016" />
  <g
     id="g17922"
     transform="scale(0.5)">
    <g
       clip-path="url(#clip0_235_8)"
       id="g14009">
      <path
         d="m 117.436,207.036 v -52.432 l 1.093,-1.094 h 10.923 l 1.093,1.094 v 52.432 l -1.093,1.094 h -10.923 z"
         fill="#05bdba"
         id="path13983" />
      <path
         d="M 117.436,53.5225 V 1.09339 L 118.529,0 h 10.923 l 1.093,1.09339 V 53.5225 l -1.093,1.0934 h -10.923 z"
         fill="#05bdba"
         id="path13985" />
      <path
         d="m 69.9539,169.238 h -1.5445 l -7.7225,-7.726 v -1.545 l 18.0332,-18.029 8.1775,0.004 1.0972,1.089 v 8.178 z"
         fill="#05bdba"
         id="path13987" />
      <path
         d="m 69.9462,38.8917 h -1.5445 l -7.7225,7.7264 v 1.5445 l 18.0332,18.0294 8.1775,-0.0038 1.0972,-1.0896 v -8.1774 z"
         fill="#05bdba"
         id="path13989" />
      <path
         d="M 1.09339,97.5104 H 75.3711 l 1.0934,1.0934 v 10.9222 l -1.0934,1.094 H 1.09339 L 0,109.526 V 98.6038 Z"
         fill="#05bdba"
         id="path13991" />
      <path
         d="m 440.999,97.5104 h 69.911 l 1.094,1.0934 v 10.9222 l -1.094,1.094 h -74.277 l -1.094,-1.094 4.366,-10.9222 z"
         fill="#05bdba"
         id="path13993" />
      <path
         d="m 212.056,108.727 -1.093,1.094 h -33.884 l -1.093,1.093 c 0,2.187 2.187,8.743 10.93,8.743 3.28,0 6.556,-1.093 7.65,-3.28 l 1.093,-1.093 h 13.117 l 1.093,1.093 c -1.093,6.557 -6.556,16.397 -22.953,16.397 -18.58,0 -27.327,-13.117 -27.327,-28.417 0,-15.2994 8.743,-28.4162 26.233,-28.4162 17.491,0 26.234,13.1168 26.234,28.4162 v 4.374 z M 195.659,97.7971 c 0,-1.0934 -1.093,-8.7433 -9.837,-8.7433 -8.743,0 -9.836,7.6499 -9.836,8.7433 l 1.093,1.0934 h 17.487 z"
         fill="#014847"
         id="path13995" />
      <path
         d="m 242.66,115.284 c 0,2.186 1.093,3.28 3.28,3.28 h 9.836 l 1.094,1.093 v 10.93 l -1.094,1.094 h -9.836 c -9.837,0 -18.58,-4.374 -18.58,-16.397 V 91.2368 l -1.094,-1.0934 h -7.649 L 217.523,89.05 V 78.1199 l 1.094,-1.0934 h 7.649 l 1.094,-1.0933 v -9.8367 l 1.093,-1.0934 h 13.117 l 1.093,1.0934 v 9.8367 l 1.094,1.0933 h 12.023 l 1.094,1.0934 V 89.05 l -1.094,1.0934 h -12.023 l -1.094,1.0934 v 24.0472 z"
         fill="#014847"
         id="path13997" />
      <path
         d="m 283.1,131.681 h -13.117 l -1.094,-1.094 V 56.2636 l 1.094,-1.0934 H 283.1 l 1.093,1.0934 v 74.3234 z"
         fill="#014847"
         id="path13999" />
      <path
         d="m 312.61,68.2871 h -13.117 l -1.094,-1.0934 V 56.2636 l 1.094,-1.0934 h 13.117 l 1.093,1.0934 v 10.9301 z m 0,63.3939 h -13.117 l -1.094,-1.094 V 78.1237 l 1.094,-1.0933 h 13.117 l 1.093,1.0933 v 52.4633 z"
         fill="#014847"
         id="path14001" />
      <path
         d="m 363.98,56.2636 v 10.9301 l -1.094,1.0934 h -9.836 c -2.187,0 -3.281,1.0934 -3.281,3.2801 v 4.3736 l 1.094,1.0934 h 10.93 l 1.093,1.0934 v 10.93 l -1.093,1.0934 h -10.93 l -1.094,1.0934 v 39.3466 l -1.093,1.093 h -13.117 l -1.093,-1.093 V 91.2444 l -1.094,-1.0934 h -7.649 l -1.094,-1.0934 v -10.93 l 1.094,-1.0934 h 7.649 l 1.094,-1.0934 v -4.3736 c 0,-12.0234 8.743,-16.397 18.58,-16.397 h 9.836 l 1.094,1.0934 z"
         fill="#014847"
         id="path14003" />
      <path
         d="m 404.42,132.774 c -4.374,10.93 -8.743,17.487 -24.047,17.487 h -5.467 l -1.093,-1.094 v -10.93 l 1.093,-1.093 h 5.467 c 5.463,0 6.556,-1.094 7.65,-4.374 v -1.093 L 370.536,89.05 V 78.1199 l 1.094,-1.0934 h 9.836 l 1.094,1.0934 13.117,37.1641 h 1.093 l 13.117,-37.1641 1.093,-1.0934 h 9.837 l 1.093,1.0934 V 89.05 l -17.486,43.72 z"
         fill="#014847"
         id="path14005" />
      <path
         d="m 135.454,131.681 -1.093,-1.094 0.007,-31.6698 c 0,-5.4631 -2.148,-9.699 -8.743,-9.8366 -3.391,-0.088 -7.271,-0.0077 -11.416,0.1682 l -0.619,0.6346 0.008,40.7036 -1.094,1.094 H 99.3913 l -1.0934,-1.094 V 77.5388 l 1.0934,-1.0934 29.5097,-0.2676 c 14.784,0 20.767,10.1578 20.767,21.6231 v 32.7861 l -1.093,1.094 z"
         fill="#014847"
         id="path14007" />
    </g>
  </g>
  <defs
     id="defs14014">
    <clipPath
       id="clip0_235_8">
      <rect
         width="512"
         height="208.12601"
         fill="#ffffff"
         id="rect14011"
         x="0"
         y="0" />
    </clipPath>
  </defs>
</svg>
