<?xml version="1.0" encoding="UTF-8" standalone="no"?>
<svg
   height="256"
   viewBox="2.59 0 23.213595 22.9376"
   width="256"
   version="1.1"
   id="svg1308"
   sodipodi:docname="41-jira.svg"
   inkscape:version="1.2.2 (732a01da63, 2022-12-09, custom)"
   xmlns:inkscape="http://www.inkscape.org/namespaces/inkscape"
   xmlns:sodipodi="http://sodipodi.sourceforge.net/DTD/sodipodi-0.dtd"
   xmlns:xlink="http://www.w3.org/1999/xlink"
   xmlns="http://www.w3.org/2000/svg"
   xmlns:svg="http://www.w3.org/2000/svg">
  <defs
     id="defs1312">
    <linearGradient
       inkscape:collect="always"
       xlink:href="#a"
       id="linearGradient1319"
       gradientUnits="userSpaceOnUse"
       gradientTransform="matrix(1,0,0,-1,0,264)"
       x1="102.4"
       y1="218.63"
       x2="56.150002"
       y2="172.39" />
  </defs>
  <sodipodi:namedview
     id="namedview1310"
     pagecolor="#ffffff"
     bordercolor="#666666"
     borderopacity="1.0"
     inkscape:showpageshadow="2"
     inkscape:pageopacity="0.0"
     inkscape:pagecheckerboard="0"
     inkscape:deskcolor="#d1d1d1"
     showgrid="false"
     inkscape:zoom="1.8125"
     inkscape:cx="128"
     inkscape:cy="127.72414"
     inkscape:window-width="1366"
     inkscape:window-height="704"
     inkscape:window-x="0"
     inkscape:window-y="27"
     inkscape:window-maximized="1"
     inkscape:current-layer="svg1308" />
  <linearGradient
     id="a"
     gradientTransform="matrix(1,0,0,-1,0,264)"
     gradientUnits="userSpaceOnUse"
     x1="102.4"
     x2="56.150002"
     y1="218.63"
     y2="172.39">
    <stop
       offset=".18"
       stop-color="#0052cc"
       id="stop1296" />
    <stop
       offset="1"
       stop-color="#2684ff"
       id="stop1298" />
  </linearGradient>
  <linearGradient
     id="b"
     x1="114.65"
     x2="160.81"
     xlink:href="#a"
     y1="85.769997"
     y2="131.92" />
  <g
     id="g1317"
     transform="matrix(0.10713372,0,0,0.10363212,2.5897521,-0.13799744)">
    <path
       d="M 214.06,105.73 117.67,9.3400001 108.33,0 35.77,72.559998 2.5899995,105.73 a 8.8900001,8.8900001 0 0 0 0,12.54 L 68.88,184.56 108.33,224 l 72.55,-72.56 1.13,-1.12 32.05,-32 a 8.8700002,8.8700002 0 0 0 0,-12.59 z M 108.33,145.12 75.209998,112 108.33,78.879999 141.44,112 Z"
       fill="#2684ff"
       id="path1302"
       style="stroke-width:1" />
    <path
       d="M 108.33,78.88 A 55.75,55.75 0 0 1 108.09,0.27 l -72.47,72.44 39.44,39.44 z"
       fill="url(#a)"
       id="path1304"
       style="fill:url(#linearGradient1319)" />
    <path
       d="m 141.53,111.91 -33.2,33.21 a 55.77,55.77 0 0 1 0,78.86 L 181,151.35 Z"
       fill="url(#b)"
       id="path1306"
       style="fill:url(#b)" />
  </g>
</svg>
