<?xml version="1.0" encoding="UTF-8" standalone="no"?>
<!-- Generator: Adobe Illustrator 19.2.1, SVG Export Plug-In . SVG Version: 6.00 Build 0)  -->

<svg
   version="1.1"
   id="layer"
   x="0px"
   y="0px"
   viewBox="0 0 256 63.659"
   xml:space="preserve"
   sodipodi:docname="42-slack.svg"
   width="256"
   height="63.659"
   inkscape:version="1.2.2 (732a01da63, 2022-12-09, custom)"
   xmlns:inkscape="http://www.inkscape.org/namespaces/inkscape"
   xmlns:sodipodi="http://sodipodi.sourceforge.net/DTD/sodipodi-0.dtd"
   xmlns="http://www.w3.org/2000/svg"
   xmlns:svg="http://www.w3.org/2000/svg"><defs
   id="defs1371" /><sodipodi:namedview
   id="namedview1369"
   pagecolor="#ffffff"
   bordercolor="#666666"
   borderopacity="1.0"
   inkscape:showpageshadow="2"
   inkscape:pageopacity="0.0"
   inkscape:pagecheckerboard="0"
   inkscape:deskcolor="#d1d1d1"
   showgrid="false"
   inkscape:zoom="1.890625"
   inkscape:cx="122.71074"
   inkscape:cy="32"
   inkscape:window-width="1366"
   inkscape:window-height="704"
   inkscape:window-x="0"
   inkscape:window-y="27"
   inkscape:window-maximized="1"
   inkscape:current-layer="layer" />
<style
   type="text/css"
   id="style1356">
	.st0{fill:#36C5F0;}
	.st1{fill:#2EB67D;}
	.st2{fill:#ECB22E;}
	.st3{fill:#E01E5A;}
</style>




<g
   id="g1378"
   transform="matrix(0.4266689,0,0,0.4266689,-8.6193818,-104.91788)"><path
     d="m 208.7,363.9 7.3,-17.1 c 8,5.9 18.4,9 28.8,9 7.6,0 12.5,-3 12.5,-7.5 -0.2,-12.5 -46,-2.8 -46.4,-34.3 -0.2,-16 14.1,-28.4 34.2,-28.4 12,0 24,3 32.5,9.7 l -6.8,17.4 c -7.8,-5 -17.5,-8.5 -26.7,-8.5 -6.3,0 -10.4,3 -10.4,6.8 0.2,12.4 46.4,5.6 46.9,35.7 0,16.4 -13.9,27.8 -33.7,27.8 -14.6,0.2 -28,-3.3 -38.2,-10.6 m 290.5,-23.2 c -3.8,6.7 -10.8,10.8 -18.4,10.8 -11.7,0 -21.2,-9.5 -21.2,-21.2 0,-11.7 9.5,-21.2 21.2,-21.2 7.6,0 14.7,4.1 18.4,10.8 l 20.3,-11.3 c -7.6,-13.6 -22.1,-22.8 -38.7,-22.8 -24.5,0 -44.4,19.9 -44.4,44.5 0,24.6 19.9,44.5 44.4,44.5 16.6,0 31.1,-9.2 38.7,-22.8 z m -205.4,32.2 h 25.4 V 248.7 H 293.8 Z M 532.3,248.7 v 124.2 h 25.4 v -37.2 l 30.1,37.2 h 32.4 L 582,328.7 617.4,287.4 h -31 l -28.7,34.3 v -73.1 h -25.4 z m -135,38.8 v 10.1 c -4.2,-7 -14.4,-11.8 -25.2,-11.8 -22.2,0 -39.8,19.7 -39.8,44.4 0,24.7 17.5,44.6 39.8,44.6 10.8,0 21,-4.9 25.2,-11.8 v 10.1 h 25.4 v -85.5 h -25.4 z m 0,53.3 c -3.6,6.1 -11.3,10.6 -19.8,10.6 -11.7,0 -21.2,-9.5 -21.2,-21.2 0,-11.7 9.5,-21.2 21.2,-21.2 8.5,0 16.2,4.7 19.8,11 z"
     id="path1358" /><path
     class="st0"
     d="m 74.7,246 c -8.2,0 -14.9,6.7 -14.9,14.9 0,8.2 6.7,14.9 14.9,14.9 0,0 0,0 0,0 H 89.6 V 260.9 C 89.6,252.7 83,246 74.7,246 m 0,39.7 H 35.1 c -8.2,0 -14.9,6.7 -14.9,14.9 0,8.2 6.7,14.9 14.9,14.9 h 39.7 c 8.2,0 14.9,-6.7 14.9,-14.9 -0.1,-8.2 -6.7,-14.9 -15,-14.9"
     id="path1360" /><path
     class="st1"
     d="m 169,300.6 c 0,-8.2 -6.7,-14.9 -14.9,-14.9 -8.2,0 -14.9,6.7 -14.9,14.9 v 14.9 h 14.9 c 8.2,0.1 14.9,-6.6 14.9,-14.9 m -39.7,0 v -39.8 c 0,-8.2 -6.7,-14.9 -14.9,-14.9 -8.2,0 -14.9,6.7 -14.9,14.9 v 39.8 c 0,8.2 6.7,14.9 14.9,14.9 8.3,0.1 14.9,-6.6 14.9,-14.9"
     id="path1362" /><path
     class="st2"
     d="m 114.4,395.1 c 8.2,0 14.9,-6.7 14.9,-14.9 0,-8.2 -6.7,-14.9 -14.9,-14.9 H 99.5 v 14.9 c 0,8.2 6.7,14.9 14.9,14.9 m 0,-39.8 h 39.7 c 8.2,0 14.9,-6.7 14.9,-14.9 0,-8.2 -6.7,-14.9 -14.9,-14.9 h -39.7 c -8.2,0 -14.9,6.7 -14.9,14.9 0,8.2 6.7,14.9 14.9,14.9 0,0 0,0 0,0"
     id="path1364" /><path
     class="st3"
     d="m 20.2,340.4 c 0,8.2 6.7,14.9 14.9,14.9 0,0 0,0 0,0 8.2,0 14.9,-6.7 14.9,-14.9 V 325.5 H 35.1 c -8.3,0 -14.9,6.7 -14.9,14.9 m 39.7,0 v 39.8 c 0,8.2 6.7,14.9 14.9,14.9 8.2,0 14.9,-6.7 14.9,-14.9 v -39.8 c 0,-8.2 -6.7,-14.9 -14.9,-14.9 0,0 0,0 0,0 -8.3,0 -14.9,6.7 -14.9,14.9"
     id="path1366" /></g>
</svg>
