<?xml version="1.0" encoding="UTF-8" standalone="no"?>
<svg
   inkscape:version="1.2.2 (732a01da63, 2022-12-09, custom)"
   sodipodi:docname="43-zoom.svg"
   id="svg835"
   version="1.1"
   height="57.528999"
   width="256"
   xmlns:inkscape="http://www.inkscape.org/namespaces/inkscape"
   xmlns:sodipodi="http://sodipodi.sourceforge.net/DTD/sodipodi-0.dtd"
   xmlns="http://www.w3.org/2000/svg"
   xmlns:svg="http://www.w3.org/2000/svg"
   xmlns:rdf="http://www.w3.org/1999/02/22-rdf-syntax-ns#"
   xmlns:cc="http://creativecommons.org/ns#"
   xmlns:dc="http://purl.org/dc/elements/1.1/">
  <metadata
     id="metadata841">
    <rdf:RDF>
      <cc:Work
         rdf:about="">
        <dc:format>image/svg+xml</dc:format>
        <dc:type
           rdf:resource="http://purl.org/dc/dcmitype/StillImage" />
      </cc:Work>
    </rdf:RDF>
  </metadata>
  <defs
     id="defs839" />
  <sodipodi:namedview
     inkscape:current-layer="svg835"
     inkscape:window-maximized="1"
     inkscape:window-y="27"
     inkscape:window-x="0"
     inkscape:cy="28.965517"
     inkscape:cx="128"
     inkscape:zoom="1.8125"
     showgrid="false"
     id="namedview837"
     inkscape:window-height="704"
     inkscape:window-width="1366"
     inkscape:pageshadow="2"
     inkscape:pageopacity="0"
     guidetolerance="10"
     gridtolerance="10"
     objecttolerance="10"
     borderopacity="1"
     inkscape:document-rotation="0"
     bordercolor="#666666"
     pagecolor="#ffffff"
     fit-margin-top="0"
     fit-margin-left="0"
     fit-margin-right="0"
     fit-margin-bottom="0"
     inkscape:showpageshadow="2"
     inkscape:pagecheckerboard="0"
     inkscape:deskcolor="#d1d1d1" />
  <path
     inkscape:connector-curvature="0"
     id="path833"
     d="m 208.43126,17.251457 c 0.97854,1.688299 1.2987,3.609153 1.4044,5.768605 l 0.13893,2.878264 v 20.126689 l 0.14195,2.881281 c 0.2839,4.705492 3.75412,8.184777 8.49585,8.480757 L 221.47857,57.529 V 25.898326 l 0.14195,-2.878264 c 0.11779,-2.135291 0.43493,-4.092387 1.42858,-5.792766 a 11.494926,11.494926 0 0 1 19.90319,0.03624 c 0.97854,1.688298 1.28359,3.645394 1.40137,5.756523 l 0.14195,2.869204 v 20.13575 l 0.14195,2.881281 c 0.29598,4.72965 3.73903,8.20894 8.49586,8.480759 L 255.99959,57.529 V 23.020062 A 23.014014,23.014014 0 0 0 232.99465,0.00604817 22.95361,22.95361 0 0 0 215.73413,7.8012131 22.983813,22.983813 0 0 0 198.47362,0.00302739 c -4.77798,0 -9.21165,1.44970301 -12.88422,3.95345711 -2.241,-2.5007359 -7.25455,-3.95345711 -10.13281,-3.95345711 V 57.529 l 2.87826,-0.141947 c 4.81421,-0.317126 8.2935,-3.702782 8.48075,-8.480757 l 0.15403,-2.881281 V 25.898326 l 0.14195,-2.878264 c 0.12081,-2.171532 0.42284,-4.080306 1.40442,-5.780685 a 11.525129,11.525129 0 0 1 9.95763,-5.732362 11.507007,11.507007 0 0 1 9.95763,5.744442 z M 11.504392,57.390069 14.382654,57.529 H 57.526379 L 57.384432,54.659799 C 56.994824,49.93015 53.645406,46.475026 48.900655,46.166965 l -2.878261,-0.14195 H 20.139178 L 54.648116,11.503994 54.506171,8.6378134 C 54.282673,3.8598371 50.791309,0.40773652 46.022394,0.14497638 L 43.144131,0.01510798 4.05e-4,0.00302739 0.14235495,2.8812903 C 0.51988145,7.5656376 3.9176197,11.093245 8.6231098,11.365065 l 2.8812822,0.14195 H 37.387608 L 2.8786669,46.028036 3.020617,48.906296 c 0.2838997,4.741731 3.7057995,8.175715 8.483775,8.480757 z M 164.16401,8.4233784 a 28.761477,28.761477 0 0 1 0,40.6792336 28.782619,28.782619 0 0 1 -40.68829,0 c -11.23216,-11.232169 -11.23216,-29.447067 0,-40.6792336 A 28.746378,28.746378 0 0 1 143.80176,6.5916662e-6 28.767518,28.767518 0 0 1 164.16401,8.4263992 Z m -8.13947,8.1455106 a 17.266551,17.266551 0 0 1 0,24.409353 17.266551,17.266551 0 0 1 -24.40934,0 17.266551,17.266551 0 0 1 0,-24.409353 17.266551,17.266551 0 0 1 24.40934,0 z M 83.433757,6.5916662e-6 A 28.746378,28.746378 0 0 1 103.75978,8.4263992 c 11.23518,11.2291458 11.23518,29.4470648 0,40.6762128 a 28.782619,28.782619 0 0 1 -40.68829,0 c -11.232168,-11.232169 -11.232168,-29.447067 0,-40.6792336 A 28.746378,28.746378 0 0 1 83.397513,6.5916662e-6 Z M 95.620307,16.56285 a 17.266551,17.266551 0 0 1 0,24.412371 17.266551,17.266551 0 0 1 -24.409346,0 17.266551,17.266551 0 0 1 0,-24.409353 17.266551,17.266551 0 0 1 24.409346,0 z"
     style="fill:#2d8cff;fill-rule:evenodd;stroke-width:3.02021" />
</svg>
