<?xml version="1.0" encoding="utf-8"?>
<!-- Generator: Adobe Illustrator 27.9.0, SVG Export Plug-In . SVG Version: 6.00 Build 0)  -->
<svg version="1.1" id="Layer_1" xmlns="http://www.w3.org/2000/svg" xmlns:xlink="http://www.w3.org/1999/xlink" x="0px" y="0px"
	 viewBox="0 0 256 256" style="enable-background:new 0 0 256 256;" xml:space="preserve">
<style type="text/css">
	.st0{fill:#DD0031;}
	.st1{fill:#C3002F;}
	.st2{fill:#FFFFFF;}
</style>
<g>
	<polygon class="st0" points="128.5,0.5 128.5,0.5 128.5,0.5 9.8,42.8 27.9,199.8 128.5,255.5 128.5,255.5 128.5,255.5 229.1,199.8 
		247.2,42.8 	"/>
	<polygon class="st1" points="128.5,0.5 128.5,28.8 128.5,28.7 128.5,157.8 128.5,157.8 128.5,255.5 128.5,255.5 229.1,199.8 
		247.2,42.8 	"/>
	<path class="st2" d="M128.5,28.7L54.3,195.1l0,0h27.7l0,0l14.9-37.2h63l14.9,37.2l0,0h27.7l0,0L128.5,28.7L128.5,28.7L128.5,28.7
		L128.5,28.7L128.5,28.7z M150.1,134.9h-43.4l21.7-52.1L150.1,134.9z"/>
</g>
</svg>
