<svg xmlns="http://www.w3.org/2000/svg" id="Capa_2" data-name="Capa 2" viewBox="0 0 122.5 197.88"><defs><style>.cls-1{stroke:#fff;stroke-miterlimit:10;stroke-width:2px;fill:#fff}</style></defs><g id="Capa_1-2" data-name="Capa 1"><path d="m.3 146.88-.3-6.1.3-5v-.2c1.7-13 7.6-25.1 17.9-36.3 12.1-13.1 27.3-18.9 44.7-20.3 1-.1 1.2-.5.5-1.3-1.8-2-3.8-4-6.1-5.8-9.3-7.3-17.6-14.3-25-21-5.2-4.7-12.5-12.7-13.8-19.7-1.6-8.3 1-15.1 7.6-20.6 13.7-11.3 37.3-12 54.6-9.2 11.6 1.9 25.4 6.7 29.6 18.5 2.3 6.5-2 12.7-8.4 14-7.1 1.5-13.1-.5-18.1-6.1-6.9-7.6-13.9-15.4-24.5-17.6-7.8-1.7-24.7-1.5-30 6.2-8.3 12.3 6.1 25 16.2 31.2 11.1 6.9 21.8 13.5 32.1 20 21.5 13.4 42.2 32.3 43.9 59.5 2.3 36.6-21.6 66-58 70.2-2.9.4-7 .5-12.3.6-28.7.1-47.9-24.1-50.9-51Zm85 30.5c22.5-25.3 13.1-67.6-15.4-91.4-1-.9-2.4-1.2-3.7-.8-24.4 6.6-40.4 25.7-40.4 51.5 0 19.1 7.4 45.4 29.7 49.1 8.3 1.3 19.1 1.3 29.8-8.4Z" style="stroke-width:0;fill:#fff"/><path d="M73.6 34.98c-.3-.1-.8-.1-1.6 0-.2 0-.4-.1-.4-.3v-.3c0-.2.1-.3.3-.3 3.3.1 6.5-.1 9.6.7 5.6 1.4 8 5.7 7.5 11.2-.5 5.2-4.2 8.5-9.3 9.2-2.1.3-4.8.3-7.9.1-.1 0-.2-.1-.2-.3v-.2c0-.2.2-.4.5-.3 1.3.2 1.9-.4 1.9-1.6v-17.3c0-.4-.1-.5-.4-.6Zm1.4 17.9c0 .4-.1 1.1-.5 1.4q-.2.2.1.2c1.6 0 3.1 0 4.5-.1 5.4-.5 9-4.2 9-9.7 0-7.7-6.4-10.1-13-9.7-.1 0-.1.1-.1.1v17.8ZM93.2 47.68c-.1 3.9 1.9 7.1 6.2 6.8 1.7-.1 3-.9 4-2.3.2-.3.6-.3.8-.1.1.1.1.3.1.4-1.1 1.7-3.2 3-4.9 2.9-.5 0-.7.1-2.4-.3-3.6-1-4.9-4.5-4.8-8.1.2-4.3 2.9-7.6 7.4-7.1 3.8.4 5.2 3.4 5.1 6.9 0 .1-.1.2-.2.2l-10.6.1c-.3-.1-.7.2-.7.6Zm.4-1.6h10.2s.1 0 .1-.1v-.1c0-2.9-2.3-5.3-5.1-5.3h-.1c-2.8 0-5.1 2.4-5.1 5.3v.2c-.1 0 0 0 0 0ZM109.3 40.98c-.1 0-.1.1-.1.1l4.3 12.4c.1.4.2.4.4 0l4.1-12.2c.1-.2 0-.3-.2-.4h-1.6c-.2 0-.3 0-.3-.3v-.1c0-.2.1-.3.3-.3h5c.2 0 .3.1.3.3v.2c0 .1-.1.2-.2.2h-2c-.1 0-.2.1-.3.2l-4.7 13.1c-.5 1.4-1 1.4-1.5 0l-4.6-12.9c-.1-.3-.4-.5-.7-.5h-1.3c-.2 0-.3-.1-.3-.2v-.1c0-.2.2-.3.4-.3h4.9c.2 0 .3.1.3.3v.2c0 .2-.1.3-.3.3h-1.9Z" class="cls-1"/></g></svg>