<svg xmlns="http://www.w3.org/2000/svg" id="Capa_2" data-name="Capa 2" viewBox="0 0 566.52 198.6"><defs><style>.cls-1{stroke-width:0;fill:#fff}.cls-2{fill:#fff;stroke:#fff;stroke-miterlimit:10}</style></defs><g id="Capa_1-2" data-name="Capa 1"><path d="M152.1 0h1.7c1.2 0 2.1.9 2.1 2.1v194.4c0 1.2-.9 2.1-2.1 2.1h-1.7c-1.2 0-2.1-.9-2.1-2.1V2.1c0-1.1.9-2.1 2.1-2.1ZM.3 147.4l-.3-6.1.3-5.1v-.2c1.7-13 7.7-25.1 18-36.3 12.1-13.2 27.3-19 44.7-20.4 1-.1 1.2-.5.5-1.3-1.8-2.1-3.8-4-6.1-5.8-9.3-7.3-17.6-14.3-25.1-21-5.2-4.7-12.5-12.7-13.8-19.8-1.6-8.3 1-15.1 7.6-20.6C39.8-.5 63.4-1.2 80.7 1.6c11.6 1.9 25.4 6.7 29.7 18.5 2.3 6.5-2 12.7-8.4 14-7.1 1.5-13.1-.5-18.1-6.1-6.9-7.6-14-15.4-24.6-17.6-7.8-1.7-24.8-1.5-30 6.2-8.3 12.3 6.1 25 16.2 31.3 11.1 6.9 21.8 13.6 32.1 20 21.5 13.5 42.2 32.3 43.9 59.5 2.3 36.7-21.6 66.1-58.1 70.3-2.9.4-7 .6-12.4.6-28.4.3-47.7-23.9-50.7-50.9Zm85 30.5c22.5-25.3 13.1-67.7-15.4-91.5-1-.9-2.4-1.2-3.7-.8-24.4 6.6-40.4 25.8-40.4 51.5 0 19.1 7.4 45.4 29.7 49.1 8.3 1.4 19.2 1.5 29.8-8.3Z" class="cls-1"/><path d="M427.6 94.6H439c.7 0 1 .4 1 1l-.1 1c0 .9-.5 1.3-1.4 1.3h-22.4c-.8 0-1.2-.4-1.1-1.3l.1-.6c.1-.8.8-1.4 1.6-1.4 4.8 0 8.5-.9 8.5-6.7.1-28 .1-55.7.1-81.9 0-1-.9-1.5-1.9-1.6l-7.1-.1c-.9 0-1.3-.5-1.2-1.4l.1-1c.1-.5.4-.8.9-.8l11.9.2c.9 0 1.3.5 1.3 1.3V88c0 1.8-.5 4.2-2 5.4-1 .8-.8 1.2.3 1.2ZM193.1 4.8h-6.6c-.7 0-1.2-.6-1.3-1.3v-.8c0-1.1.5-1.6 1.5-1.6 25.7-.6 63-1.2 71.7 32.5 3.9 15.3 2.2 32.8-7.1 45.6-15.7 21.8-42.7 18.8-65 18.3-.6 0-1-.5-1-1.1v-.1l.1-1.1c.2-1.3.8-1.9 2.1-1.7 5.3.7 8-1.4 8-6.5V7.1c-.2-1.3-1.2-2.3-2.4-2.3Zm5.7 86.3c-.3.7-.7 1.3-1.3 1.8-.8.7-.7 1 .3 1.1 10.8.6 19.3.1 25.4-1.5 21.6-5.6 32.4-20.3 32.5-44.3.1-33.9-27.8-44.4-54.9-43-.8 0-1.2.5-1.2 1.4.1 28.1.1 54.9 0 80.7 0 1.2-.3 2.5-.8 3.8ZM279.6 43.6c13.1-18.9 43.1-15.5 50 7.8 6.1 20.8-3.5 48.4-28.9 46.5-13.6-1-22.3-8.3-25.8-22-2.8-10.3-1.6-23.3 4.7-32.3Zm21.7 50.7c13.8.6 25.5-12.2 26.2-28.5.7-16.4-9.9-30.1-23.7-30.7-13.8-.6-25.5 12.2-26.2 28.5-.7 16.4 9.9 30.1 23.7 30.7ZM506.2 51.3c4.1 14.7 1.9 32.6-11.1 41.9-4.2 3-8.9 4.6-14 4.8-22.2.8-32.2-16.3-30.7-36.5.7-9.6 4.2-17.2 10.4-22.9 14.5-13.3 39.7-7.3 45.4 12.7ZM478 94.4c13.8.6 25.5-12.2 26.2-28.5.7-16.4-9.9-30.1-23.7-30.7-13.8-.6-25.5 12.2-26.2 28.5-.7 16.4 9.9 30.2 23.7 30.7ZM527.1 44.1c-3.7 9.4 3.4 15.2 11.8 17.1 11.5 2.6 29.3 4.7 26.9 21.8-1.2 8.7-8.4 13.4-16.6 14.5-11.7 1.6-23.7-.4-28.7-12.4-.5-1.2-.1-2 1.1-2.4l.6-.2c.8-.3 1.8.1 2.1 1 4.1 9.9 14 11.7 23.5 10.6 17-2 19.8-22 2.3-25.9-11.4-2.5-29.6-4.6-27.9-21.3 1.5-15.2 20.5-17.4 31.4-13.7 5.2 1.7 8.8 5.5 10.6 11.2.4 1.2 0 2.1-1.2 2.5l-.5.2c-.9.3-1.6 0-1.9-.9-3.2-8.3-10.1-11.9-20.5-10.7-6.7.8-11 3.6-13 8.6ZM391.6 86.9c-7.1 8.7-16.1 12.3-27.1 10.7-12.3-1.8-15.1-12.5-15-24.3.2-13.1.2-25.1 0-35.9 0-.7-.6-1.3-1.3-1.3l-7.1.2c-.7 0-1.1-.4-1.1-1.1v-1.1c0-.6.5-1.1 1.1-1.1l11.4.3c.7 0 1.3.6 1.3 1.3-.2 15.2-.2 29.5.1 43.1.2 10 4.9 15.4 14 16.2 9.4.9 17.2-2.9 23.6-11.2.5-.7.8-1.5.8-2.3V37.2c0-.5-.4-.9-.9-.9h-10.3c-.5 0-1-.4-1-1l.1-1c0-.8.5-1.2 1.3-1.2l13.9.3c.6 0 .9.3.9.9v58.6c0 .6.3.8.8.8l6.7.1c.5 0 .9.4.9 1l.1.2v1.2c-.1.6-.9 1.1-1.6 1.1l-9.4-.1c-.8 0-1.2-.4-1.2-1.2v-8.7c.2-1.2-.2-1.4-1-.4ZM193.9 110.1c-1.2-.5-3.6-.6-7-.2-.9.1-1.6-.6-1.7-1.4v-.3l.1-.8c0-.7.6-1.2 1.3-1.2 13.9.3 27.8-.4 41.3 3 23.9 6.1 34.4 24.5 32.1 47.9-2.2 22.3-17.9 36.5-40 39.4-9.1 1.2-20.4 1.3-33.7.3-.6 0-1-.6-1-1.2v-.1l.1-.7c.2-.9 1-1.6 2-1.4 5.4.8 8.1-1.5 8.1-7v-74.2c-.2-1-.6-1.7-1.6-2.1Zm5.7 76.8c0 1.7-.6 4.8-2.1 5.9-.9.7-.8 1 .3 1.1 6.9.2 13.3 0 19.2-.5 23-2.1 38.7-18 38.6-41.7-.1-33-27.3-43.1-55.6-41.3-.4 0-.6.2-.6.6.3 25.3.3 50.7.2 75.9ZM277.7 164.5c-.3 16.6 8.1 30.3 26.7 29.1 7.1-.5 12.8-3.7 17-9.8.8-1.2 2.4-1.4 3.6-.6l.1.1c.5.4.6 1.2.3 1.7-4.6 7.1-13.6 12.9-21.1 12.5-2.2 0-2.9.3-10.4-1.1-15.3-4.4-21.2-19.4-20.4-34.7 1-18.3 12.3-32.4 31.7-30.6 16.1 1.5 22.2 14.4 21.9 29.3 0 .5-.4.9-.9.9l-45.4.2c-1.4.1-3.1 1.5-3.1 3Zm1.7-6.6 43.6-.1c.2 0 .4-.2.4-.4v-.2c0-12.5-9.8-22.5-21.9-22.5h-.6c-12.1 0-21.9 10.1-21.8 22.6v.2c-.1.2.1.4.3.4ZM346.7 136c-.3 0-.6.2-.6.6v.2l18.5 52.9c.5 1.5 1.1 1.5 1.6 0l17.8-52.2c.2-.7-.1-1.5-.8-1.7-.1-.1-.3-.1-.5-.1l-6.2-.1c-1 0-1.4-.2-1.4-1.2v-.6c0-.8.4-1.2 1.2-1.2h21.6c.9 0 1.3.5 1.3 1.4l-.1 1c0 .6-.3.9-1 .9l-8.6.1c-.5 0-1 .3-1.2.8L368.4 193c-2.1 6-4.3 6-6.4 0l-19.8-55.2c-.5-1.4-1.7-2.3-3.2-2.2l-5.6.1c-.7 0-1.2-.3-1.2-1v-.5l.1-.2c.1-1 .7-1.4 1.6-1.4H355c.7 0 1.2.6 1.2 1.3v.8c0 .8-.4 1.2-1.2 1.1l-8.3.2Z" class="cls-2"/></g></svg>