<?xml version="1.0" standalone="no"?>
<!DOCTYPE svg PUBLIC "-//W3C//DTD SVG 20010904//EN"
 "http://www.w3.org/TR/2001/REC-SVG-20010904/DTD/svg10.dtd">
<svg version="1.0" xmlns="http://www.w3.org/2000/svg"
 width="1588.000000pt" height="756.000000pt" viewBox="0 0 1588.000000 756.000000"
 preserveAspectRatio="xMidYMid meet">
<metadata>
Created by potrace 1.16, written by Peter Selinger 2001-2019
</metadata>
<g transform="translate(0.000000,756.000000) scale(0.100000,-0.100000)"
fill="#000000" stroke="none">
<path d="M768 7550 c-356 -57 -641 -312 -740 -665 l-23 -80 -3 -957 -3 -958
166 0 165 0 0 430 0 430 455 0 455 0 0 165 0 165 -456 0 -456 0 4 338 c4 287
7 345 22 392 79 246 302 413 551 413 153 0 290 -57 399 -167 39 -39 82 -92 96
-118 l25 -48 177 0 c98 0 178 4 178 8 0 5 -11 37 -25 71 -111 285 -332 484
-620 561 -91 24 -278 34 -367 20z"/>
<path d="M2618 6690 c-205 -33 -374 -117 -514 -257 -109 -109 -182 -233 -231
-390 l-27 -88 -4 -532 -3 -533 165 0 166 0 0 473 c0 526 3 559 65 682 43 88
99 152 182 212 195 139 461 139 656 0 73 -53 126 -109 165 -179 l27 -48 178 0
178 0 -6 23 c-75 247 -275 472 -506 569 -149 62 -350 90 -491 68z"/>
<path d="M4622 6688 c-202 -28 -427 -151 -550 -297 -151 -181 -222 -374 -222
-603 0 -232 83 -443 241 -612 88 -94 170 -154 281 -205 146 -67 191 -76 388
-76 164 1 180 3 260 29 94 31 213 91 272 137 l38 31 0 -101 0 -101 165 0 165
0 0 489 c0 537 -5 597 -59 737 -50 128 -106 211 -215 319 -115 114 -200 167
-341 214 -144 48 -279 60 -423 39z m279 -344 c225 -67 381 -243 419 -472 29
-174 -38 -360 -175 -491 -180 -170 -414 -208 -640 -102 -229 107 -365 380
-311 625 46 205 185 361 381 428 97 33 237 38 326 12z"/>
<path d="M6638 6690 c-365 -58 -643 -299 -749 -650 -23 -73 -23 -87 -27 -612
l-3 -538 166 0 165 0 0 478 c0 375 3 491 15 545 42 199 214 379 415 432 72 19
210 19 284 0 187 -49 335 -189 403 -382 l28 -78 3 -497 3 -498 165 0 165 0 -4
523 c-4 576 -4 577 -72 738 -85 201 -270 389 -467 471 -148 62 -350 90 -490
68z"/>
<path d="M8648 6690 c-271 -43 -490 -182 -636 -405 -96 -147 -142 -306 -142
-495 0 -178 39 -321 132 -478 43 -73 217 -247 290 -290 160 -94 300 -132 485
-132 328 0 608 161 781 448 18 29 32 57 32 62 0 6 -75 10 -198 10 l-198 0 -30
-31 c-120 -125 -340 -187 -518 -145 -257 61 -446 299 -446 559 1 151 58 285
170 398 117 117 239 169 400 169 143 0 260 -42 371 -134 l56 -46 197 0 c108 0
196 3 196 8 0 20 -108 172 -163 230 -114 119 -273 212 -431 252 -91 23 -265
33 -348 20z"/>
<path d="M9760 5795 l0 -905 165 0 165 0 0 905 0 905 -165 0 -165 0 0 -905z"/>
<path d="M10920 6690 c-182 -13 -312 -54 -425 -134 -192 -138 -260 -409 -155
-617 47 -92 168 -189 300 -242 113 -44 200 -57 460 -67 333 -13 451 -38 527
-112 41 -40 57 -79 49 -123 -21 -112 -196 -175 -485 -175 -237 1 -369 40 -475
140 l-53 50 -196 0 c-109 0 -197 -3 -197 -6 0 -3 16 -36 35 -73 117 -223 347
-377 637 -427 138 -24 500 -15 613 15 294 78 458 281 442 549 -4 70 -11 96
-41 156 -114 231 -378 336 -847 336 -342 0 -538 98 -490 243 36 108 187 157
479 157 254 0 370 -34 483 -140 l53 -50 198 0 198 0 -26 53 c-85 168 -216 292
-396 376 -181 85 -383 112 -688 91z"/>
<path d="M13010 6694 c-14 -2 -52 -9 -85 -15 -140 -25 -274 -89 -398 -189
-345 -279 -429 -780 -197 -1172 51 -84 162 -204 246 -264 74 -53 186 -107 279
-135 98 -30 321 -38 427 -16 170 36 330 120 456 241 62 59 182 226 182 253 0
10 -40 13 -196 13 l-196 0 -54 -50 c-248 -226 -652 -171 -843 116 -70 104 -96
191 -96 319 1 110 21 188 74 280 164 286 536 373 811 190 36 -24 74 -53 84
-64 18 -20 30 -21 218 -21 109 0 198 3 198 7 0 25 -96 160 -163 230 -167 174
-377 268 -617 278 -58 2 -116 2 -130 -1z"/>
<path d="M14868 6669 c-355 -52 -648 -322 -735 -676 -23 -97 -23 -295 0 -396
51 -217 185 -415 362 -537 74 -51 205 -108 301 -131 76 -18 110 -20 234 -16
155 5 251 27 365 85 240 120 415 350 472 617 19 90 12 323 -12 410 -120 429
-547 709 -987 644z m276 -304 c97 -25 194 -83 272 -160 311 -309 182 -839
-238 -976 -95 -31 -263 -34 -348 -5 -200 67 -353 227 -405 422 -25 93 -21 224
9 320 61 192 223 347 416 398 73 20 221 20 294 1z"/>
<path d="M12150 4285 l0 -615 -375 0 -375 0 0 -60 0 -60 375 0 375 0 0 -1165
0 -1165 65 0 65 0 0 1165 0 1165 375 0 375 0 0 60 0 60 -375 0 -375 0 0 615 0
615 -65 0 -65 0 0 -615z"/>
<path d="M0 3610 l0 -60 1131 -2 1131 -3 -1131 -1099 -1131 -1098 0 -64 0 -64
1225 0 1225 0 0 65 0 65 -1129 2 -1129 3 1129 1095 1128 1095 1 63 0 62 -1225
0 -1225 0 0 -60z"/>
<path d="M3854 3656 c-374 -71 -693 -306 -864 -637 -290 -561 -120 -1236 400
-1589 223 -151 530 -229 796 -202 406 42 743 256 950 603 l44 74 0 -342 0
-343 60 0 60 0 0 668 c0 733 -3 772 -61 946 -133 397 -452 696 -859 803 -81
22 -122 26 -275 29 -122 2 -203 -1 -251 -10z m441 -130 c226 -49 418 -157 575
-322 435 -458 400 -1167 -77 -1585 -201 -176 -448 -268 -718 -268 -223 0 -418
59 -610 184 -94 61 -264 236 -323 334 -265 435 -210 968 138 1335 162 170 384
291 600 326 41 6 82 13 90 15 34 9 260 -5 325 -19z"/>
<path d="M6678 3651 c-248 -54 -450 -164 -625 -338 -153 -153 -256 -337 -321
-572 l-27 -96 -3 -1323 -3 -1322 61 0 60 0 0 952 0 951 50 -82 c128 -214 295
-365 525 -477 542 -263 1209 -84 1542 413 98 147 153 275 189 445 23 105 26
369 5 473 -93 469 -440 840 -901 962 -81 22 -122 26 -280 29 -154 3 -200 1
-272 -15z m468 -125 c620 -134 1002 -752 840 -1360 -108 -407 -459 -728 -875
-801 -348 -61 -709 54 -963 308 -303 304 -403 750 -257 1151 132 362 469 645
839 706 41 6 82 13 90 15 34 9 260 -5 326 -19z"/>
<path d="M9525 3650 c-321 -68 -591 -250 -771 -521 -139 -208 -204 -425 -204
-678 0 -341 121 -634 360 -871 178 -177 379 -284 630 -336 105 -22 333 -24
440 -5 364 65 690 294 861 603 l29 53 0 -337 0 -338 65 0 66 0 -4 703 c-3 626
-5 710 -21 777 -59 252 -161 436 -340 616 -182 183 -398 296 -645 339 -120 21
-352 19 -466 -5z m506 -133 c255 -66 466 -205 620 -410 146 -194 219 -412 219
-657 0 -297 -101 -546 -308 -762 -198 -206 -453 -322 -733 -335 -250 -11 -461
47 -665 183 -331 220 -527 629 -485 1014 34 315 190 592 440 781 129 97 312
175 478 205 117 20 313 12 434 -19z"/>
<path d="M14432 3655 c-250 -47 -485 -175 -665 -364 -160 -168 -268 -376 -314
-608 -23 -120 -24 -358 0 -470 106 -501 478 -871 974 -970 118 -23 356 -23
468 1 365 79 663 296 837 611 l28 50 0 -342 0 -343 60 0 61 0 -3 718 -3 717
-27 96 c-122 447 -444 769 -885 886 -85 22 -122 26 -278 29 -123 2 -203 -1
-253 -11z m397 -120 c450 -73 812 -420 907 -869 24 -114 28 -257 10 -373 -68
-446 -388 -798 -831 -914 -78 -21 -113 -24 -260 -23 -152 0 -181 3 -268 27
-184 49 -348 141 -484 270 -178 170 -299 399 -333 636 -19 126 -8 323 25 441
149 544 685 894 1234 805z"/>
</g>
</svg>
