<?xml version="1.0" encoding="UTF-8"?>
<!DOCTYPE svg PUBLIC "-//W3C//DTD SVG 1.1//EN" "http://www.w3.org/Graphics/SVG/1.1/DTD/svg11.dtd">
<svg xmlns="http://www.w3.org/2000/svg" version="1.1" width="1588px" height="756px" style="shape-rendering:geometricPrecision; text-rendering:geometricPrecision; image-rendering:optimizeQuality; fill-rule:evenodd; clip-rule:evenodd" xmlns:xlink="http://www.w3.org/1999/xlink">
<g><path style="opacity:0.979" fill="#fefffe" d="M 81.5,-0.5 C 87.1667,-0.5 92.8333,-0.5 98.5,-0.5C 128.488,3.40986 151.655,18.0765 168,43.5C 172.29,50.7419 175.457,58.4085 177.5,66.5C 165.482,66.8323 153.482,66.499 141.5,65.5C 128.047,40.94 107.381,30.44 79.5,34C 52.4469,40.7204 36.9469,57.8871 33,85.5C 32.5,106.164 32.3334,126.831 32.5,147.5C 62.8333,147.5 93.1667,147.5 123.5,147.5C 123.5,158.5 123.5,169.5 123.5,180.5C 93.1667,180.5 62.8333,180.5 32.5,180.5C 32.5,209.167 32.5,237.833 32.5,266.5C 21.5,266.5 10.5,266.5 -0.5,266.5C -0.5,204.5 -0.5,142.5 -0.5,80.5C 7.62708,34.0395 34.9604,7.0395 81.5,-0.5 Z"/></g>
<g><path style="opacity:0.972" fill="#fefffe" d="M 266.5,85.5 C 313.977,85.0493 345.643,107.049 361.5,151.5C 349.5,152.833 337.5,152.833 325.5,151.5C 310.897,125.674 288.897,115.508 259.5,121C 234.947,128.555 220.781,145.055 217,170.5C 216.5,202.498 216.333,234.498 216.5,266.5C 205.5,266.5 194.5,266.5 183.5,266.5C 183.333,232.832 183.5,199.165 184,165.5C 192.382,118.949 219.882,92.2824 266.5,85.5 Z"/></g>
<g><path style="opacity:0.974" fill="#fefffe" d="M 467.5,85.5 C 514.379,85.0088 545.879,106.675 562,150.5C 563.385,155.761 564.385,161.094 565,166.5C 565.5,199.832 565.667,233.165 565.5,266.5C 554.5,266.5 543.5,266.5 532.5,266.5C 532.666,259.825 532.5,253.158 532,246.5C 511.422,263.131 487.922,269.631 461.5,266C 427.05,260.026 403.216,240.859 390,208.5C 378.57,173.736 384.57,142.403 408,114.5C 424.406,97.713 444.24,88.0464 467.5,85.5 Z M 464.5,119.5 C 490.666,117.002 510.833,126.669 525,148.5C 538.781,180.155 531.615,205.988 503.5,226C 476.923,238.95 453.09,235.117 432,214.5C 413.123,189.755 412.789,164.755 431,139.5C 440.337,129.589 451.503,122.922 464.5,119.5 Z"/></g>
<g><path style="opacity:0.977" fill="#fefffe" d="M 668.5,85.5 C 713.972,84.8356 745.139,105.502 762,147.5C 763.846,154.065 765.18,160.731 766,167.5C 766.5,200.498 766.667,233.498 766.5,266.5C 755.5,266.5 744.5,266.5 733.5,266.5C 733.667,235.498 733.5,204.498 733,173.5C 728.512,139.845 709.346,121.845 675.5,119.5C 644.036,121.793 625.203,138.459 619,169.5C 618.5,201.832 618.333,234.165 618.5,266.5C 607.5,266.5 596.5,266.5 585.5,266.5C 585.333,232.165 585.5,197.832 586,163.5C 595.253,118.077 622.753,92.0773 668.5,85.5 Z"/></g>
<g><path style="opacity:0.97" fill="#fefffe" d="M 869.5,85.5 C 909.581,84.6971 939.248,101.697 958.5,136.5C 945.179,137.666 931.846,137.833 918.5,137C 897.177,117.545 873.51,114.212 847.5,127C 823.807,143.237 815.307,165.403 822,193.5C 834.717,224.113 857.55,236.946 890.5,232C 901.4,228.885 910.733,223.218 918.5,215C 931.829,214.5 945.163,214.333 958.5,214.5C 944.995,243.453 922.329,260.62 890.5,266C 845.406,270.043 812.906,251.876 793,211.5C 778.39,169.097 787.89,133.264 821.5,104C 835.957,93.596 851.957,87.4293 869.5,85.5 Z"/></g>
<g><path style="opacity:0.982" fill="#fefffe" d="M 975.5,85.5 C 986.5,85.5 997.5,85.5 1008.5,85.5C 1008.5,145.833 1008.5,206.167 1008.5,266.5C 997.5,266.5 986.5,266.5 975.5,266.5C 975.5,206.167 975.5,145.833 975.5,85.5 Z"/></g>
<g><path style="opacity:0.972" fill="#fefffe" d="M 1101.5,85.5 C 1130.29,83.0493 1156.29,90.2159 1179.5,107C 1189.48,115.642 1197.15,125.976 1202.5,138C 1188.82,138.833 1175.15,138.666 1161.5,137.5C 1152.56,127.197 1141.23,121.364 1127.5,120C 1115.17,119.333 1102.83,119.333 1090.5,120C 1079.87,120.537 1070.7,124.371 1063,131.5C 1059.11,139.179 1060.61,145.679 1067.5,151C 1075.89,155.681 1084.89,158.348 1094.5,159C 1105.83,159.333 1117.17,159.667 1128.5,160C 1150.56,159.906 1170.06,166.739 1187,180.5C 1202.57,200.353 1203.57,221.02 1190,242.5C 1178.99,255.089 1165.16,262.589 1148.5,265C 1132.2,266.536 1115.87,266.869 1099.5,266C 1065.74,262.478 1041.41,245.645 1026.5,215.5C 1039.82,214.334 1053.15,214.167 1066.5,215C 1076.31,226.072 1088.65,232.072 1103.5,233C 1120.43,234.584 1137.1,233.251 1153.5,229C 1169.27,222.382 1171.27,213.049 1159.5,201C 1152.27,197.275 1144.6,194.942 1136.5,194C 1121.18,193.023 1105.85,192.356 1090.5,192C 1069.9,190.778 1052.4,182.945 1038,168.5C 1024.68,147.227 1025.68,126.56 1041,106.5C 1051.39,96.2211 1063.89,90.0544 1078.5,88C 1086.3,87.0678 1093.97,86.2345 1101.5,85.5 Z"/></g>
<g><path style="opacity:0.97" fill="#fefffe" d="M 1302.5,85.5 C 1342.54,84.681 1372.21,101.681 1391.5,136.5C 1378.18,137.666 1364.85,137.833 1351.5,137C 1331.08,117.89 1308.08,114.224 1282.5,126C 1255.73,143.649 1247.23,167.816 1257,198.5C 1273.66,229.392 1298.82,239.559 1332.5,229C 1339.72,225.554 1346.06,220.887 1351.5,215C 1364.83,214.5 1378.16,214.333 1391.5,214.5C 1377.99,243.455 1355.32,260.621 1323.5,266C 1276.87,270.111 1244.03,250.945 1225,208.5C 1211.89,165.508 1222.72,130.008 1257.5,102C 1271.32,93.006 1286.32,87.506 1302.5,85.5 Z"/></g>
<g><path style="opacity:0.967" fill="#fefffe" d="M 1587.5,163.5 C 1587.5,172.167 1587.5,180.833 1587.5,189.5C 1579.01,230.82 1554.01,255.653 1512.5,264C 1465.25,267.971 1432.75,248.137 1415,204.5C 1403.56,160.571 1416.4,125.737 1453.5,100C 1487.54,82.0921 1520.54,83.7588 1552.5,105C 1571.75,119.999 1583.41,139.499 1587.5,163.5 Z M 1489.5,117.5 C 1519.2,115.096 1540.7,127.096 1554,153.5C 1564.2,184.891 1555.7,209.724 1528.5,228C 1496.42,242.411 1469.92,235.577 1449,207.5C 1436.25,184.612 1437.25,162.279 1452,140.5C 1461.91,128.39 1474.41,120.723 1489.5,117.5 Z"/></g>
<g><path style="opacity:0.924" fill="#fefffe" d="M 1214.5,265.5 C 1218.83,265.5 1223.17,265.5 1227.5,265.5C 1227.5,306.5 1227.5,347.5 1227.5,388.5C 1252.5,388.5 1277.5,388.5 1302.5,388.5C 1302.5,392.5 1302.5,396.5 1302.5,400.5C 1277.5,400.5 1252.5,400.5 1227.5,400.5C 1227.5,478.167 1227.5,555.833 1227.5,633.5C 1223.17,633.5 1218.83,633.5 1214.5,633.5C 1214.5,555.833 1214.5,478.167 1214.5,400.5C 1189.5,400.5 1164.5,400.5 1139.5,400.5C 1139.5,396.5 1139.5,392.5 1139.5,388.5C 1164.5,388.5 1189.5,388.5 1214.5,388.5C 1214.5,347.5 1214.5,306.5 1214.5,265.5 Z"/></g>
<g><path style="opacity:0.926" fill="#fefffe" d="M -0.5,388.5 C 81.1667,388.5 162.833,388.5 244.5,388.5C 244.666,392.846 244.499,397.179 244,401.5C 168.529,473.97 93.3626,546.803 18.5,620C 93.8326,620.5 169.166,620.667 244.5,620.5C 244.5,624.833 244.5,629.167 244.5,633.5C 162.833,633.5 81.1667,633.5 -0.5,633.5C -0.5,629.167 -0.5,624.833 -0.5,620.5C 74.9647,547.536 150.298,474.37 225.5,401C 150.167,400.5 74.8341,400.333 -0.5,400.5C -0.5,396.5 -0.5,392.5 -0.5,388.5 Z"/></g>
<g><path style="opacity:0.932" fill="#fefffe" d="M 391.5,388.5 C 443.246,384.46 483.413,403.794 512,446.5C 521.268,462.303 526.934,479.303 529,497.5C 529.5,542.832 529.667,588.165 529.5,633.5C 525.5,633.5 521.5,633.5 517.5,633.5C 517.667,610.831 517.5,588.164 517,565.5C 493.287,608.709 456.62,631.376 407,633.5C 353.155,630.935 315.155,605.269 293,556.5C 275.867,507.279 284.533,463.279 319,424.5C 339.271,404.614 363.438,392.614 391.5,388.5 Z M 397.5,400.5 C 453.529,399.911 491.696,425.578 512,477.5C 525.39,534.035 507.556,577.535 458.5,608C 405.763,631.386 359.929,621.886 321,579.5C 289.243,534.944 288.577,489.944 319,444.5C 339.127,419.021 365.293,404.354 397.5,400.5 Z"/></g>
<g><path style="opacity:0.938" fill="#fefffe" d="M 581.5,755.5 C 577.5,755.5 573.5,755.5 569.5,755.5C 569.333,669.499 569.5,583.499 570,497.5C 579.805,436.694 614.972,400.528 675.5,389C 728.574,384.122 769.407,403.956 798,448.5C 820.269,490.704 819.935,532.704 797,574.5C 765.919,620.446 722.752,639.279 667.5,631C 629.016,622.028 600.516,600.195 582,565.5C 581.5,628.832 581.333,692.166 581.5,755.5 Z M 682.5,400.5 C 740.482,400.014 778.982,427.014 798,481.5C 809.343,537.5 790.51,580 741.5,609C 693.272,629.923 650.105,622.423 612,586.5C 578.355,546.732 573.022,503.399 596,456.5C 615.803,423.86 644.637,405.193 682.5,400.5 Z"/></g>
<g><path style="opacity:0.923" fill="#fefffe" d="M 960.5,388.5 C 1013.55,384.112 1054.39,404.112 1083,448.5C 1092.15,464.295 1097.49,481.295 1099,499.5C 1099.5,544.165 1099.67,588.832 1099.5,633.5C 1095.17,633.5 1090.83,633.5 1086.5,633.5C 1086.67,611.164 1086.5,588.831 1086,566.5C 1062.44,609.134 1026.11,631.467 977,633.5C 930.077,631.883 894.411,611.217 870,571.5C 851.266,534.942 849.599,497.609 865,459.5C 884.817,419.675 916.65,396.008 960.5,388.5 Z M 966.5,400.5 C 1019.11,399.209 1056.61,422.209 1079,469.5C 1097.08,526.054 1081.92,571.221 1033.5,605C 1000.47,623.335 966.469,625.335 931.5,611C 888.082,588.53 866.582,552.696 867,503.5C 872.646,455.857 897.813,423.357 942.5,406C 950.512,403.617 958.512,401.784 966.5,400.5 Z"/></g>
<g><path style="opacity:0.932" fill="#fefffe" d="M 1587.5,495.5 C 1587.5,541.5 1587.5,587.5 1587.5,633.5C 1583.5,633.5 1579.5,633.5 1575.5,633.5C 1575.67,610.831 1575.5,588.164 1575,565.5C 1547.27,615.455 1504.77,637.621 1447.5,632C 1402.85,624.002 1371.02,599.502 1352,558.5C 1332.64,503.97 1343.8,456.803 1385.5,417C 1422.86,387.611 1464.2,380.611 1509.5,396C 1553.83,414.845 1579.83,448.012 1587.5,495.5 Z M 1455.5,400.5 C 1500.58,399.119 1535.41,417.119 1560,454.5C 1582.79,497.558 1580.13,538.892 1552,578.5C 1516.53,618.826 1473.37,629.993 1422.5,612C 1374.96,588.773 1352.79,550.606 1356,497.5C 1363.81,451.034 1389.97,420.201 1434.5,405C 1441.57,403.155 1448.57,401.655 1455.5,400.5 Z"/></g>
</svg>
