<?xml version="1.0" encoding="UTF-8" standalone="no"?>
<svg
   height="512"
   viewBox="0 0 512 512"
   fill="#c4d4f0"
   version="1.1"
   id="svg5860"
   sodipodi:docname="whatsapp.svg"
   width="512"
   inkscape:version="1.2.2 (732a01da63, 2022-12-09, custom)"
   xmlns:inkscape="http://www.inkscape.org/namespaces/inkscape"
   xmlns:sodipodi="http://sodipodi.sourceforge.net/DTD/sodipodi-0.dtd"
   xmlns="http://www.w3.org/2000/svg"
   xmlns:svg="http://www.w3.org/2000/svg">
  <defs
     id="defs5864" />
  <sodipodi:namedview
     id="namedview5862"
     pagecolor="#ffffff"
     bordercolor="#000000"
     borderopacity="0.25"
     inkscape:showpageshadow="2"
     inkscape:pageopacity="0.0"
     inkscape:pagecheckerboard="0"
     inkscape:deskcolor="#d1d1d1"
     showgrid="false"
     inkscape:zoom="0.73472814"
     inkscape:cx="150.39576"
     inkscape:cy="249.75224"
     inkscape:window-width="1366"
     inkscape:window-height="708"
     inkscape:window-x="0"
     inkscape:window-y="27"
     inkscape:window-maximized="1"
     inkscape:current-layer="svg5860" />
  <!--! Font Awesome Free 6.4.2 by @fontawesome - https://fontawesome.com License - https://fontawesome.com/license (Commercial License) Copyright 2023 Fonticons, Inc. -->
  <path
     d="M 435.31429,74.4 C 387.42857,26.4 323.65714,0 255.88571,0 116,0 2.1714286,113.82857 2.1714286,253.71429 2.1714286,298.4 13.828571,342.05714 36,380.57143 L 0,512 134.51429,476.68571 c 37.02857,20.22858 78.74285,30.85715 121.25714,30.85715 h 0.11428 C 395.65714,507.54286 512,393.71429 512,253.82857 512,186.05714 483.2,122.4 435.31429,74.4 Z M 255.88571,464.8 C 217.94286,464.8 180.8,454.62857 148.45714,435.42857 l -7.65714,-4.57143 -79.771429,20.91429 21.257143,-77.82857 -5.028571,-8 C 56.114286,332.34286 45.028571,293.6 45.028571,253.71429 45.028571,137.48571 139.65714,42.857143 256,42.857143 c 56.34286,0 109.25714,21.942857 149.02857,61.828567 39.77143,39.88572 64.22857,92.8 64.11429,149.14286 0,116.34286 -97.02857,210.97143 -213.25715,210.97143 z M 371.54286,306.85714 c -6.28572,-3.2 -37.48572,-18.51428 -43.31429,-20.57143 -5.82857,-2.17142 -10.05714,-3.2 -14.28571,3.2 -4.22857,6.4 -16.34286,20.57143 -20.11429,24.91429 -3.65714,4.22857 -7.42857,4.8 -13.71428,1.6 -37.25715,-18.62857 -61.71429,-33.25714 -86.28572,-75.42857 -6.51428,-11.2 6.51429,-10.4 18.62857,-34.62857 2.05715,-4.22857 1.02857,-7.88572 -0.57143,-11.08572 -1.6,-3.2 -14.28571,-34.4 -19.54285,-47.08571 -5.14286,-12.34286 -10.4,-10.62857 -14.28572,-10.85714 -3.65714,-0.22858 -7.88571,-0.22858 -12.11428,-0.22858 -4.22857,0 -11.08572,1.6 -16.91429,7.88572 -5.82857,6.4 -22.17143,21.71428 -22.17143,52.91428 0,31.2 22.74286,61.37143 25.82857,65.6 3.2,4.22858 44.68572,68.22858 108.34286,95.77143 40.22857,17.37143 56,18.85715 76.11429,15.88572 12.22857,-1.82857 37.48571,-15.31429 42.74285,-30.17143 5.25715,-14.85714 5.25715,-27.54286 3.65715,-30.17143 -1.48572,-2.85714 -5.71429,-4.45714 -12,-7.54286 z"
     id="path5858"
     style="stroke-width:1.14286" />
</svg>
