<?xml version="1.0" encoding="UTF-8" standalone="no"?>
<svg
   fill="none"
   width="256"
   height="210.627"
   viewBox="-13.1265 -18 24.26944 28.434645"
   version="1.1"
   id="svg13357"
   sodipodi:docname="44-google-meet.svg"
   inkscape:version="1.2.2 (732a01da63, 2022-12-09, custom)"
   xmlns:inkscape="http://www.inkscape.org/namespaces/inkscape"
   xmlns:sodipodi="http://sodipodi.sourceforge.net/DTD/sodipodi-0.dtd"
   xmlns="http://www.w3.org/2000/svg"
   xmlns:svg="http://www.w3.org/2000/svg">
  <defs
     id="defs13361" />
  <sodipodi:namedview
     id="namedview13359"
     pagecolor="#ffffff"
     bordercolor="#666666"
     borderopacity="1.0"
     inkscape:showpageshadow="2"
     inkscape:pageopacity="0.0"
     inkscape:pagecheckerboard="0"
     inkscape:deskcolor="#d1d1d1"
     showgrid="false"
     inkscape:zoom="1.8125"
     inkscape:cx="128"
     inkscape:cy="105.10345"
     inkscape:window-width="1366"
     inkscape:window-height="704"
     inkscape:window-x="0"
     inkscape:window-y="27"
     inkscape:window-maximized="1"
     inkscape:current-layer="svg13357" />
  <g
     id="g23426"
     transform="matrix(0.39492629,0,0,0.39492629,-18.27178,-18.000024)">
    <path
       fill="#00832d"
       d="m 49.5,36 8.53,9.75 11.47,7.33 2,-17.02 -2,-16.64 -11.69,6.44 z"
       id="path13345" />
    <path
       fill="#0066da"
       d="M 0,51.5 V 66 c 0,3.315 2.685,6 6,6 h 14.5 l 3,-10.96 -3,-9.54 -9.95,-3 z"
       id="path13347" />
    <path
       fill="#e94235"
       d="M 20.5,0 0,20.5 l 10.55,3 9.95,-3 2.95,-9.41 z"
       id="path13349" />
    <path
       fill="#2684fc"
       d="M 20.5,20.5 H 0 v 31 h 20.5 z"
       id="path13351" />
    <path
       fill="#00ac47"
       d="M 82.6,8.68 69.5,19.42 v 33.66 l 13.16,10.79 c 1.97,1.54 4.85,0.135 4.85,-2.37 V 11 C 87.51,8.465 84.565,7.075 82.6,8.68 Z M 49.5,36 v 15.5 h -29 V 72 h 43 c 3.315,0 6,-2.685 6,-6 V 53.08 Z"
       id="path13353" />
    <path
       fill="#ffba00"
       d="m 63.5,0 h -43 v 20.5 h 29 V 36 l 20,-16.57 V 6 c 0,-3.315 -2.685,-6 -6,-6 z"
       id="path13355" />
  </g>
</svg>
